<?xml version="1.0" encoding="UTF-8" standalone="no"?>
<svg xmlns:dc="http://purl.org/dc/elements/1.1/" xmlns:cc="http://creativecommons.org/ns#" xmlns:rdf="http://www.w3.org/1999/02/22-rdf-syntax-ns#" xmlns:svg="http://www.w3.org/2000/svg" xmlns:sodipodi="http://sodipodi.sourceforge.net/DTD/sodipodi-0.dtd" xmlns:inkscape="http://www.inkscape.org/namespaces/inkscape" xmlns="http://www.w3.org/2000/svg" xmlns:xlink="http://www.w3.org/1999/xlink" version="1.1" id="svg6528" sodipodi:version="0.32" inkscape:version="0.48.3.1 r9886" sodipodi:docname="New_Jersey_Presidential_Election_Results_by_County,_2012.svg" inkscape:output_extension="org.inkscape.output.svg.inkscape" x="0px" y="0px" width="368.5px" height="687px" viewBox="-71 -122.7 368.5 687" enable-background="new -71 -122.7 368.5 687" xml:space="preserve">
<defs>
	
	
		<inkscape:perspective inkscape:persp3d-origin="372.04724 : 350.78739 : 1" sodipodi:type="inkscape:persp3d" inkscape:vp_x="0 : 526.18109 : 1" inkscape:vp_y="0 : 1000 : 0" inkscape:vp_z="744.09448 : 526.18109 : 1" id="perspective6536">
		</inkscape:perspective>
	
		<inkscape:perspective inkscape:persp3d-origin="524.5 : 650 : 1" sodipodi:type="inkscape:persp3d" inkscape:vp_x="0 : 975 : 1" inkscape:vp_y="0 : 1000 : 0" inkscape:vp_z="1049 : 975 : 1" id="perspective392">
		</inkscape:perspective>
</defs>
<sodipodi:namedview inkscape:window-maximized="0" fit-margin-left="5" fit-margin-top="5" showguides="true" pagecolor="#ffffff" bordercolor="#666666" borderopacity="1.0" gridtolerance="10000" guidetolerance="10" objecttolerance="10" inkscape:zoom="1.7786862" inkscape:cx="213.94795" inkscape:cy="211.22702" showgrid="false" id="base" inkscape:guide-bbox="true" inkscape:document-units="px" inkscape:pageopacity="0.0" inkscape:pageshadow="2" inkscape:current-layer="layer1" inkscape:window-width="903" inkscape:window-height="826" inkscape:window-x="885" inkscape:window-y="38" fit-margin-bottom="5" fit-margin-right="5">
	</sodipodi:namedview>
<g id="use26" transform="matrix(0.025,0,0,0.025,-10.579614,497.33971)">
</g>
<g id="Atlantic" transform="matrix(0.025,0,0,0.025,-10.579614,497.33971)">
	
		<path id="_x33_050" inkscape:connector-curvature="0" fill="#4582CB" stroke="#FFFFFF" stroke-width="2" stroke-miterlimit="10" d="   M4982.2-6511.5l139,116l379,311l52,65.9l35.9,40l5,30l5,45l21,41l36,70l5,50l-21,56l-10,50l16,86l-16,60l11,70l25,20l21,46l36,15   l30.9,25h20l26,10l20-10l16-20h15l10,15l6,20l-6,30l16,15l20-15l52-55l30,15l113,50l134,100l123,135.9l103,15l51,15l40.9,15l31,15   l36,60l154,111l20,25l11,60l20,5l26-30l20-5l31,20l20,15l20.9,15l15-5l36,10l21,36l41,25l26,55l15,10l45.9-20l21,5l20,25l46,30   l41-10l31-20l35.9-5l15,25l6,30l10,30l20,10h6l20-10l5-45l5-56l16-15l30,5l21,20v10l-21,66l16,60l50.9,41l52-6l10-50l-47-70l-10-31   l57-15l46,35l46-40l30.9-25l15,40l21,71l10,70l36,96l-41,15v35l-5,116l87,95l-5,90.9l42,70l133,126l26,70l-31,41l-61-15l-21-51   l-87-10l-46,56l15,35l57,5l51,90l-15,41h-52l-20,40l15,60l35.9,51l47,95l-72,45.9l-40.9,30l-51-40l-26-40l-36-55.9l-26-75l10-41   v-10l-25-5l-82-9l-11-41l-46-5l-20,25l10,71l-25,50l-67-5l-36,60.9l-5,171l-36,70l-128,41l-30,35l25,126l0.9,116l51-46l82-25l87-10   l97,30l47,30v30l-11,30l6,21h10l20-1l52,10l20,16l11,35l-11,25l-5,20l11,10l56,10l31,5l20,20l10.9,40l10,35.9l5,20l5,25v10l5,15   l-55.9,45l-108,66l-107,71l-92,55l-77,30l-103,41l-87,30l-72,51l-76,70l-72,50.9l-45.9,30l-36,40l-41,46l-36,15l-36-5h-20l-15.9-10   l5-20l20.9-51l25-25l31-35l15-35l16-45.9v-50l10-30l5-36l36-15l46-25l25.9-15l30-25l21-20l25-26l6-5l10-40h-26l-26-30l57-30l56-66   v-15l5-25l-5-66l-10-25l-57-30l-97-5l-31,5l-87,41l-10,75l-21,126l-35,25l-40.9,56l-5,100l-52,6l-36-21l-61-40l-30.9,15l-20,41   l-52,110.9l36,70l16,65l-41,51l-56,60l-72,5l-72-40l-154-10l-77,46l-72,5l-50.9-30l-31-36l-25-4l-36,35l-26,35l-36-10l-45.9-30   l-56-30l-57,55l47,35l41,66l-41,55l-5-25v-30l-26-35l-31,5l-20,5l-26,15l-15,20l-5.9,15l-25,30h-5l-5-20v-15l-16-35h-5l-10,5   l-26,20l-26,5l-25,10l-26,10l-15,11l-30.9,10h-31l-15-15l-10-15l-26-11l-15,11h-11l-10-10h-15l-10,15l-26,15l-25.9-5l-15-25l-21-25   h-31l-20-10l-41-11l-31,6l-36,10l-61,10l-41,20l-26-25l-10-30l-16-20l-20,20l-26,20l-31-20l-56-15l-31,10l-10-10v-25l5-25l-56-15   l-31-11l-26,11l-15,15l-21-5l-15-20l-31-5l-15-5h-5l-36,30l-87-15l-67,10l-41-15l-26-20l-36-61l-36-5l-82-25l-51-10l-36-25l-26-75   v-106l15-166l31-111l30-80l16-45.9l5-50v-40l-5-30l-11-41l-15-35l-16-35l-10-30l5-40l11-21l15-35l5-20l10-30v-40l-15-36l-5-30   l-6-75l-1098-1006l931-1032l425-479l574-635L4982.2-6511.5z"/>
	
		<path id="_x33_132" inkscape:connector-curvature="0" fill="#4582CB" stroke="#FFFFFF" stroke-width="2" stroke-miterlimit="10" d="   M8227.2-3737.5l128,9l61-5l47-10l46,5l30,5l11,50l10,31l16,30l20,25l15,5l42-10l15-35l41,4l-5,56l-15,60v41l-5,45l-31,30l-40.9,20   h-57l-35-15h-31l-26,16v60l5,25l26,20l10,61l-15,45l-25,65l-57,95.9l-71,91l-57,50l-87,51l-107,65l-72,61l-123,75l-31,16l-25,20   l-21,10l-10-45l-15.9-31l-30-10l-47-35l-15-20l-10-30l-6-45v-10l16-31v-15l30-15l11,5l30,20l11,20l20,25l35.9,5l41-30l51-96l16-10   l31-20l45.9-15l25-10l21-15l-16-25l-25-15l-35.9-10l-16-5l11-31l25-40l25.9-45l36-20l41-15.9l30-25l5-15l21-40l10-51v-70l-5-60   l-16-46l-25-45l-21-40l-10-35l5-31l-5-20l10-10l31,20h41l15-15l-21-30l11-20L8227.2-3737.5z"/>
	
		<path id="_x33_142" inkscape:connector-curvature="0" fill="#4582CB" stroke="#FFFFFF" stroke-width="2" stroke-miterlimit="10" d="   M7474.2-3077.5l-16-15l-5-25l16-15l30-26l21-20l25-10l16-10h10l21,30l-5,56l-11,55v20l31,15l20.9,20l5,36l-10,35l-45.9,25l-46,15   l-21,15l-36,26h-36l-20-21l-5-35l10-30l25-50l16-26l10-25V-3077.5z"/>
	
		
	
		
</g>
<path id="Bergen" inkscape:connector-curvature="0" fill="#4582CB" stroke="#FFFFFF" stroke-width="2" stroke-linejoin="round" d="  M291.5-17l-0.6,4.3l-0.6,2.3L289-4.7l-0.8,3.4l-1.5,5.6l-0.9,3.3l-1.3,3.4l-1.4,3.9l-0.4,1l-2.6,7l-2.9,6.7l-0.3,0.7l-1.3,2.9  l-1.4,2.8l-1.6,2.9l-0.4,0.6l-0.9-0.5l0.3-0.9l-2.7-2.9l-1.3-0.5l-1.4-1.9l-0.5-0.1l-1.1,1.3l-1.6,0.4l-0.9,1.1l-1.8,1l-2.2,0.3  h-0.4l-2.6,1.1l-2.2,2l-2.2,2.5l-0.6,2.4l0.6,1.8l-0.3,1.6l-1.1,0.6l-1-0.3l-0.5-0.8l0.1-2.8l-0.1-0.6l-2.4,0.5l-2,1.6l-0.9-0.3  l-0.8-1.6l-0.8-0.8l-1-1.4l-1.5-0.4l0.6-1.8l1.3-2.3l-0.1-1.3l0-1.3l0.8-2l0.4-0.9l1-0.4l0.4-0.1l0.4-0.4l0.1-0.3l0.3-0.8l0.1-0.3  v-0.3l0.1-0.5v-0.9l-0.1-0.3l-0.6-1.5l0.4-2.5v-0.9l-0.1-0.9l0.1-1l0.8-0.3l0.1-0.1l0.3,0.3l0.9,1.5l0.8-0.9l-1.1-4.5l-0.9-1.4  l-0.1-0.1l-0.9-1.3h-0.1l-0.1-0.1l-0.3-0.1l-0.1-0.1l-0.3-0.1l-0.3-0.3L242,14l-0.1-0.4l-0.4-2.5l-0.1-0.3l-0.1-0.4v-0.3l0-0.6  l0.1-2.6l0.3-1.8V4.5l-0.3-0.6l-0.3-0.1l-0.5-0.1l-0.9-0.4l-0.4-0.6V2.3l0.1-0.4l0.3-0.4l0.1-0.1l0.1-0.4V0.8l-0.1-0.3l-0.5-1  L239-1.1l-0.3-0.1l-0.3-0.1h-0.4l-0.5-0.5l0.1-0.5l0.4-0.4l0.3-0.3l0.4-1.9l0.6-1l0.1-0.9l0.4-0.9l-1.1-1l-0.9-0.5l-2.7-2.1  l-0.6-0.5l-0.8,0.1l-1,1.4l-5.3-0.7l-2-0.3l-3.6-0.3l-2.5-1.1l-2.7-2.4l-0.4-0.6l-0.9-1.3l-0.5-0.9l-0.3-0.6l-1.1-2.5l-0.5-0.5  l-0.9-0.9l-0.4-0.3l0.5-1.4l0.3-0.7l1.5-3.9l1.4-3.8l0.3-0.4l0.6-1.8l0.1-0.5l0.1-0.4l0.3-0.6l0.5-1.2l0.3-0.5l0.6-1.9l0.3-0.4  l0.9-2.5l1-2.7l0.4-0.9l2.1-5.3l1.4-3.7l12.5,6.8l27.1,15.8l5.1,3.1l3.5,1.9l16.6,9.5l0.9,0.5L291.5-17z"/>
<path id="Burlington" inkscape:connector-curvature="0" fill="#2C69B2" stroke="#FFFFFF" stroke-width="2" stroke-linejoin="round" d="  M116.4,218l1,0.3l1.3-0.9l0.4-0.8l1.3-2.3l-0.6-0.6l-0.4-0.5l0.1-0.6l-0.3-0.6l-0.3-0.5l-0.1-0.5v-0.6l0.5-0.6l0.4-0.4l0.4-0.1h1  l0.8,0.5l0.6,0.6l0.5,0.3l1,0.1l1-0.1h0.6l0.8,0.5l0.1,0.5l0.1,0.3v0.9l-0.5,0.9l0.6,0.4h1.6l1.8,1.3l2.7,1.3l1.8,1.4l2.6,0.6  l0.5,0.9v1.1l0.4,0.4l4.5,1l1.8-0.3l0.3-0.1l5.4,11.1l2.3,4.4l0.6,1.4l0.3,0.5l0.4,1l0.3,0.5l1,2.4l0.1,0.3l1,2.6l1.7,3.5l0.5,1  l1.9,6l1.8,4l0.6,1.4l0.1,0.4v0.3l0.3,0.4l0.1,0.5l0.6,1.4l0.1,0.5l0.3,0.6l0.5,1.1l0.3,0.6l0.3,0.6l0.3,0.8l1.3,3.1l0.5,1.6  l0.3,0.6l0.4,0.8l0.1,0.4l1,2.4l0.3,0.9l0.6,1.6l0.3,0.4l0.3,0.5l0.1,0.5l0.3,0.8l1.2,2.8l3.2,7.3l0.3,0.5l1.8,4.4l1.4,3.5l2.6,6.4  l0.4,0.9l0.1,0.3l0.4,1l0.8,1.8l0.1,0.4l6.2,14.2l-1,34.9l-0.3,5.9l0,1.3v2.4l-0.1,2l-0.1,0.5l-0.1,0.3l-0.3,0.5l-0.1,0.3l-0.1,0.5  l-0.1,0.1L187,375l-0.4,1.1v0.8l-0.1,0.5l-0.1,0.6l-0.4,0.5l-0.1,0.6l-0.3,0.4l-1,0.1l-0.6-0.1h-0.4l-0.5,0.1l-0.3,0.3h-0.4l0.1,0.6  l0.4,0.8v1.1l-0.6,0.4l-0.8,0.6l-1.1,1l-1.1-0.9l-1.4,0.4l0.3,0.8l1.2,1.8l-0.3,1.3l-1.3,0.1l-1.3-1l-0.4-1.5l0.5-1.6v-0.3l-0.5-0.5  l-0.8-0.1l-0.4,0.4l-0.1,1.4l-0.1,1.1l-0.5,0.3h-0.1l-0.5-0.3l-0.3-0.8l-0.1-0.8l-0.4-0.6l-0.9,0.1l-0.8,0.5l-1,0.3l-1.1-0.8  l-0.5-0.6l-0.5-0.1l-1.1,0.5l-0.4-0.3l-0.6-1.4l-1-0.6l-0.5-0.9l-0.9-0.3l-0.4,0.1l-0.5-0.4l-0.5-0.4l-0.8-0.5l-0.5,0.1l-0.6,0.8  l-0.5-0.1l-0.3-1.5l-0.5-0.6l-3.9-2.8l-0.9-1.5l-0.8-0.4l-1-0.4l-1.3-0.4l-2.6-0.4l-3.1-3.4l-3.4-2.5l-2.8-1.3l-0.8-0.4l-1.3,1.4  l-0.5,0.4l-0.4-0.4l0.1-0.8l-0.1-0.5l-0.3-0.4h-0.4l-0.4,0.5l-0.5,0.3l-0.6-0.3h-0.5l-0.8-0.6l-0.9-0.4l-0.5-1.1l-0.6-0.5l-0.3-1.8  l0.4-1.5l-0.4-2.1l0.3-1.3l0.5-1.4l-0.1-1.3l-0.9-1.8l-0.5-1l-0.1-1.1l-0.1-0.8l-0.9-1l-1.3-1.6l-9.5-7.8l-3.5-2.9l-2.8-2.3  l-1.3-0.8l-1.4-0.5l-1.3-1.1l-1-0.8l-0.3-0.6l-0.3-0.8l-0.4-0.1l-0.8-0.5l-0.4-0.5l-1.2-2.8l-1.5-0.6l-1.7-2.3l-1.3-0.9l-1.9-0.9  l-1.7-0.4l-2.6-0.1l-1.7,0.1l-1.3,0.1l-1.4,0.6l-1.9,0.6l-1.5,0.3l-0.9,0.1h-1.1l-1.4-0.3l-1.1-0.6l-0.6-0.6l-0.6-0.6l-2.2-9.2  L73,294.8l-0.4-2l-1-1.1l-0.8-0.9l-1-0.9l-0.1-0.6l-0.6-0.9l-1.1-1.3l-0.3-1.6l-0.4-0.8l-1.1-1.8l-1-1l-1.9-0.3l-1.4-0.8l-0.8-1  l0.1-0.8l0.8-0.4l0-0.5l0.6-0.3l0.4-0.3v-0.6l-0.8-0.4l-1.6,0.3l-0.9-0.1h-0.5l-0.9-0.1l-0.3-0.1l-0.6-0.5l-0.7-0.1l-0.6-0.4  l-0.5-0.4l-0.7-0.3l-0.8-0.3l-0.4-0.5l0.1-0.5l0.4-0.5l0.3-0.3l0.3-0.6l-0.1-0.4l-0.5-0.6l-0.7-1.5l-0.3-0.8l0.5-0.8l0.4-0.6  l0.2-0.5l0.1-0.5l0.3-0.5l0.5-0.4l0.3-0.3l-0.5-0.6l-0.7-0.8l-0.3-0.6l-0.8-0.6l-0.5-0.8l-0.7-0.3l-0.8,0.1l-0.9-0.1l-0.5-0.4  l-0.5-0.4l-0.5,0.1l-0.8,0.1l-0.6,0.1l-0.9,0.9l-1.9-0.8l0.1-0.3l0.4-0.8l0.4-0.8l0.3-0.9l0.6-0.9l0.3-0.6l0.7-0.7l0.5-0.5l0.8-0.5  l0.9-0.5l1-0.4l1.1-0.4l1.4-0.4l1.3-0.6l0.5-0.3l0.7-0.5l0.9-0.7l0.1-0.1l0.9-0.7l0.8-0.7l0.2-0.3l0.6-0.7l1.1-1.2l0.5-0.6l0.8-0.6  l0.9-0.8L63,246l0.3-0.3l1.3-0.8l1.6-0.8l2.6-1.7l2.1-1.4l1-0.6l1-0.2h0.3l0.7,0l1.4-0.1l0.8-0.1l0.8-0.2l0.8-0.3l0.9-0.2l0.8-0.2  l0.7-0.3l1-0.4l1.1-0.4l0.9-0.4l0.8-0.4l0.8-0.3l0.7-0.3l0.8-0.4l0.4-0.4l0.5-0.5l0.4-0.5l0.4-0.5l0.4-0.6l0.5-0.5l0.6-0.4l0.9-0.5  l0.8-0.5l0.6-0.5l0.5-0.6l0.3-0.9l0.1-1.1l0.4-1l0.3-0.9l0.5-0.8l0.5-0.6l0.5-0.5l0.6-0.3l0.8-0.3h0.9l0.9,0.3l1.2,0.5l0.1,0.1  l1.2,0.6l0.7,0.2l0.6,0.1l0.1,0.1h0.6l0.6-0.1l0.5-0.3l0.5-0.4l0.1-0.1l0.5-0.5l0.6-0.5l0.6-0.6l0.8-0.5l0.8-0.4l0.1-0.1l0.6-0.2  l1-0.1l1,0h0.7l0.6-0.2l0.9-0.6l0.9-0.7l1-0.9l1-1L116.4,218z"/>
<path id="Camden" inkscape:connector-curvature="0" fill="#4582CB" stroke="#FFFFFF" stroke-width="2" stroke-linejoin="round" d="  M44.8,261.8l1.9,0.8l0.9-0.9l0.6-0.1l0.8-0.1l0.5-0.1l0.5,0.4l0.5,0.4l0.9,0.1l0.8-0.1l0.7,0.3l0.5,0.8l0.8,0.6l0.3,0.6l0.7,0.8  l0.5,0.6l-0.3,0.3l-0.5,0.4l-0.3,0.5l-0.1,0.5l-0.2,0.5l-0.4,0.6l-0.5,0.8l0.3,0.8l0.7,1.5l0.5,0.6l0.1,0.4l-0.3,0.6l-0.3,0.3  l-0.4,0.5l-0.1,0.5l0.4,0.5l0.8,0.3l0.7,0.3l0.5,0.4l0.6,0.4l0.6,0.1l0.6,0.5l0.3,0.1l0.9,0.1h0.5l0.9,0.1l1.6-0.3l0.8,0.4v0.6  l-0.4,0.3l-0.6,0.3l0,0.5l-0.8,0.4L61,280l0.8,1l1.4,0.8l1.9,0.3l1,1l1.1,1.8l0.4,0.8l0.3,1.6l1.1,1.3l0.6,0.9l0.1,0.6l1,0.9  l0.8,0.9l1,1.1l0.4,2l3.5,14.5l2.2,9.2l0.6,0.6l0.6,0.6l1.1,0.6l1.4,0.3h1.1l0.9-0.1l1.5-0.3l1.9-0.6l1.4-0.6l1.3-0.1l1.7-0.1  l2.6,0.1l1.7,0.4l1.9,0.9l1.3,0.9l1.7,2.3l1.5,0.6l1.2,2.8l0.4,0.5l0.8,0.5l0.4,0.1l0.3,0.8l0.3,0.6l1,0.8l1.3,1.1l1.4,0.5l1.3,0.8  l2.8,2.3l-5.5,6.2l-14.4,15.9l-10.6,12l-1.4-1l-1.7-1.8v-0.5l-0.1-0.5l-0.1-1.4l-0.9-0.5l-0.8-0.4l-0.5-1.3l-0.5-2.4l-0.6-4.6  l-0.4-2l-2.1-3.4l-1.4-1.1l-0.4-1.4l-1.4-1.3l-6.3-1.8l-3.1-1.3l-2.9-1.8l-0.6-1.8l-2.8-2.4l-1.8-0.5l-1-0.9l0.1-2.6v-1.9l-0.5-1  l-1.7-2l-1.2-1.5l-0.9-1.1l-0.3-1.1l-0.5-1l-0.9-1l-0.8-0.4l-1.3-1l-1.2-1.1l-0.6-1.4l-0.3-0.3l-0.6-0.4l-0.4-1V314l-1.9-1.6l-1-0.9  v-2.1l0.8-1.5v-2.3l-0.2-0.5l0.3-1.5l-0.5-0.9l-1.4-1.4l-2.2-1.3l-1.2-1.3l-1.5-1l-0.8-1.6l-0.7-1.1l-1.2-0.8l-0.8-0.5l0.3-0.9  l-0.6-1.3l-1.7-1l0.2-0.2l0.6-0.8l0.6-1l0.4-0.9l0.3-1.1l0.1-0.4l0.1-0.9l0-1.1l-0.1-0.8l-0.2-0.8l-0.3-1l-0.2-0.8l-0.2-1.1  l-0.2-1.1l-0.1-1.1l-0.1-1l-0.1-1.1l0.2-1l0.1-0.7l0.3-0.9l0.3-0.6l0.6-0.8l0.8-0.8l0.2-0.3l0.4-0.3l1.2-0.9l1.7-1.1l1.6-0.6  l0.9-0.3l1.7-0.5l1.7-0.5l1.4-0.7l1-0.8L43,264l0.8-0.9l0.8-0.8L44.8,261.8z"/>
<path id="Cape_May" inkscape:connector-curvature="0" fill="#001C65" stroke="#FFFFFF" stroke-width="2" stroke-linejoin="round" d="  M86.2,447l0.6,1.9l0.9,0.6l1.3,0.3l2.1,0.6l0.9,0.1l0.9,1.5l0.6,0.5l1,0.4l1.7-0.3l2.2,0.4l0.9-0.8h0.1l0.4,0.1l0.8,0.1l0.4,0.5  l0.5,0.1l0.4-0.4l0.6-0.3l0.8,0.3l1.4,0.4l-0.1,0.6v0.6l0.3,0.3l0.8-0.3l1.4,0.4l0.8,0.5l0.6-0.5l0.5-0.5l0.4,0.5l0.3,0.8l0.6,0.6  l1-0.5l1.5-0.3l0.9-0.3l0.8-0.2l1,0.3l0.5,0.3h0.8l0.5,0.6l0.4,0.6l0.6,0.1l0.6-0.4l0.3-0.4h0.4l0.3,0.3h0.3l0.4-0.3l0.6,0.3  l0.3,0.4l0.4,0.4h0.8l0.8-0.3l0.4-0.3l0.6-0.3l0.6-0.3l0.6-0.1l0.6-0.5l0.3-0.1h0.1l0.4,0.9v0.4l0.1,0.5h0.1l0.6-0.8l0.1-0.4  l0.4-0.5l0.6-0.4l0.5-0.1l0.8-0.1l0.6,0.9v0.8l0.1,0.6l-0.8,0.9l1.9,0.7l2.4-0.3l2.2,0.8l1.4,0.5l0.3,1.2l-0.4,0.6l-0.9,2.9  l-0.5,1.9l0.3,0.8l0.4,0.1l0.9-1l1.3-0.9l0.6-0.4l0.9-0.6l0.6-0.8l0.1-0.8v-0.8l-0.3-0.6l-0.4-0.5l-0.1-0.3l0.1-0.5l0.4-0.8l0.4-0.1  l0.4-0.1l1.1,0.9l1.3,0.5l1.4-0.9l1.1-0.8l1.4-1l0.8-0.8l1.4-0.5l1.1-0.1l0.6,0.6l0.8,1.5l-0.9,3.4l-1.3,0.8l-2.4,0.9l-2.3,0.6  l-2.4,2l-2.1,2.3l-1.1,1.8l-0.6,1.9l-1.1,2.8l-0.9,1.5l-1,1l-1.3,1l-1.4,0.4l-0.9-0.1l-1.1-0.1l-1,0.5l0,1l-0.1,0.6l-0.5,0.9  l-0.5,0.1l-0.8,0l-0.5,0.4l0.4,0.5l0.9,0.3l1,0.4l0.4,0.4l-0.1,1.4l-1.4,1.5l-0.9,1.4l-1,1.6l-0.9,1l-0.5,0.9l-0.5,1.5l-0.8,1.6  l-0.4,1.3l-0.8,1.2l-0.9,1.5l-1,0.8l-1.2,0.6l-0.3,0.8l-0.5,1.3l-0.3,0.8l-0.4,1l-0.5,0.4l-0.8,0.5l-0.5,0.1l-0.4-0.3l-0.3-0.5v-1.4  l0.4-1.1l0.3-0.9l0.1-0.9l0.1-0.6l-0.3-0.4l-1,0.3l-0.3,0.1l-0.6,0.8v0.9l-0.3,1.1v1l-0.5,1l-3.2,0.4l-0.9,1l0.4,0.3l0.9,0.4l1.3,0  h0.9l-0.4,1.2l-0.3,1.4v0.3l0.3,0.3l1-0.3l1-0.6l2.2-0.6l0.5,0.1l0.3,0.1l0.5,1.5v1.3l-1.1,1.6l-1.4,1.5l-1,1.7l-1,1.8l-1.3,2.4  l-1,2.3l-0.9,1.5l-1.1,1.9l-1.4,1.3l-1,0.9l-1.1,1.4l-0.6,0.9l-0.4,0.3l-0.3,0.3l-0.9,0.6l-0.5-2.5l0.1-0.9l0.1-1.4l0.6-1.1l0.3-0.8  l0.5-1.4l1.6-0.5l1-0.6l0.6-0.6l0.3-0.6l-0.4-0.9l-0.6-0.9l-0.4-0.5l-0.5-1.5l0.1-1l0.5-1.1l0.3-1.1l-0.3-1.7l-0.1-0.6v-0.4  l-0.1-0.9l-0.6-0.9h-0.5l-0.9,0.4l-1.4,0.3l-1.3,0.3l-1.6,0.4l-0.3,1.3l-0.3,1.5l1.7,2.6l1.5-1.4l0.4-0.1l0.5,2.6l0.4,1.6l0.3,0.1  l0.4,0.3l0.3,1l-0.1,1.1l-0.3,0.5l-0.5,0.5l-0.5,0.4l-1.1,1.1l-0.5,1l-0.6,1.5l-0.5,1.9l-0.4,1.5l-0.9,0.6l-1.4,0.1l-0.4,0.4  l0.3,0.8l0.3,0.5l0.5,0.8l0.3,0.8v0.6l0.8,1.1l0.8,0.6l0.3,0.9v0.9l-1,1.9l-1.8,2l-2.6,2l-1.8,1.4l-1.8,1.7l-1.3,1.5l-1.3,1.1  l-1.3,0.8l-1.5,1l-1.3,0.9l-0.5,0.8l-0.3,0.4l-0.4,0.3l-0.8-0.8l0.4-1.8v-1.1l-0.4-1l-0.4-0.9l0.1-1.1l0.5-0.4l0.3-0.3h1l0.6,0.8  l0.8-0.1l1.2-0.6l0.6-0.5l0.3-0.7l0.1-0.5l0.5-1l-0.1-0.1l-0.5-0.5l-0.4-0.5l-0.9-0.3l-1.6,0.8l-1,0.4h-1l-0.8-0.9l-0.4-0.1  l-0.6,0.4l-0.3,0.1v0.6l0.5,0.6l0.4,0.8l0.1,0.6l-0.3,0.9l-1,0.5l-1-0.6l-1-0.4l-0.6,0.5l0.3,1.3l0.1,0.3l0.6,0.3l0.9,0.1l0.8,0.4  l0.3,0.8v1.3l-0.1,0.1l-1.4,0.5l-1.1,0.3h-0.8l-2.4,0l-0.8,0.9l-0.1,0.6l0.9,0.6l1.5-0.1l0.9-0.4l0.3-0.1l0.9-0.1l0.6-0.3l0.8-0.3  l1.1,0.3l0.3,1l-1,1.1l-1.1,0.8l-0.9,0.4l-0.5,0.1l-2.7,0.9l-1.4,0.3l-2.3,0.5l-1.9,0.5l-1.6,0.4l-2.2,0.6l-1.8,0.1h-1.5l-1.2-0.4  h-1l-0.6-0.4l0.3-0.6l0.5-1.1l0.1-0.3l-0.9-1.4l-0.4-0.9l0.1-1.1l1.4-0.8l0.4-1.2l0.3-1.4l0.1-1.1l-0.1-0.6l-0.3-0.5l-0.3-1.1  l0.3-0.8v-0.6l0.1-1.3l0.3-0.9l0.3-0.6l1-1.8l0.4-1l1-2.5l0.6-2l0.4-1.9l0.3-1.3l0.4-1.4l1.3-1.4l1.1-1.5l1.3-1.4l1.1-1.1l0.8-2.3  l0.5-1.9l0.4-2l0.5-1.6l0.5-1l1.6-2.1l0.9-2.1l0.4-1.3l0.1-0.6l0.9-1.5l0.6-1.5l0.3-1.8l-0.3-2.4l-0.4-1.4l-0.3-1.5l0.1-1.4  l-0.1-1.3l-0.5-0.9l-1.3-1.3l-0.6-1.4l-0.9-1.6l-1-0.9l0.3-3.5l-0.5-0.4l-0.1-0.6l0.1-0.5l-1.1-0.6l-0.6,0.3v-0.6l0.4-0.5l0.3-0.4  l-0.1-0.1h-0.6l-0.5-0.5v-0.5l-0.3-0.7l0.4-0.8l0.1-0.8l-0.1-0.9l-0.1-0.8v-0.9l-0.1-0.8l0.1-1.1l1.1-1l1.4-0.3l1.1-0.1l0.8-0.4  l0.9-1l1.4-1.3l2.3-18.9l0.8-1.1l0.8-0.4l1.6-1.5l0.9-2.1L86.2,447z"/>
<path id="Cumberland" inkscape:connector-curvature="0" fill="#78B5FE" stroke="#FFFFFF" stroke-width="2" stroke-linejoin="round" d="  M60.2,394.4l27.4,25.2l0.1,1.9l0.1,0.8l0.4,0.9v1l-0.3,0.8l-0.1,0.5l-0.4,0.9l-0.3,0.5l-0.1,1l0.3,0.8l0.4,0.9l0.4,0.9l0.3,1  l0.1,0.8v1l-0.1,1.3l-0.4,1.1l-0.8,2l-0.8,2.8l-0.4,4.2v2.6l-0.5,0.8l-0.9,2.2l-1.6,1.5l-0.8,0.4l-0.8,1.1l-2.3,18.9L78,473l-0.9,1  l-0.8,0.4l-1.1,0.1l-1.4,0.3l-1.1,1l-0.1,1.1l0.1,0.8v0.9l0.1,0.8l0.1,0.9l-0.1,0.8l-0.4,0.8l0.3,0.6v0.5l0.5,0.5h0.6l0.1,0.1  l-0.3,0.4l-0.4,0.5v0.6l0.6-0.3l1.1,0.6l-0.1,0.5l0.1,0.6l0.5,0.4l-0.3,3.5l-2.1,0l-1.5-0.6l-1.4-0.6l-2.1-1.5l-2.1-0.9l-2.1-0.8  l-1.9-0.1l-4.4,0.9l-2.7-0.8l-2.9,0.1l-1.7,0.3l-1-0.9l0.1-1l1.3-1l-0.9-2.2l-0.7-0.6l0.3-0.9l-0.4-0.6l-1.3-0.5l-1.8,0.3l-0.5,0.9  l-0.3,0.8l-4.6,0.7l-3.1-0.3l-2.8-0.4l-0.9,0.5l-0.5,0.6l-1.4,0.1l-1,0.4l-0.3,1l-0.4,1.4l-0.1,1.5l-0.6,1.1l-1.4,0.6l-2.1,0.6  l-0.5-0.4l-0.9-0.9l-1.2-1.6l-1.3-1.8l-1.9-1.1h-1.2l-0.1-0.6l0.1-0.9l1.2-0.3l0.7-0.3l0.1-1l-0.8-0.8l-0.8-0.4v-1l0.7-1l0.5-1.1  l-0.1-1.8l-1.8-2.9l-1.7-0.9l-1-0.1l-0.7,0.6l-0.9,0.5l-0.7-0.1l-0.4-1.4l-0.2-2.2l-0.6-0.5l-1.4-0.6l-1.8-0.6l-1.8-0.6l-2.1-1.5  l-1.4-0.9l-1-1.4l0.9-0.4l1-1.1v-1.4l-0.9-0.5l-1.3-0.4l-1-0.1l0.1-1.7l-0.5-0.5h-1.8l-2.9,0l-0.8,0.5l-0.4,0.9l-0.5,1.1l-0.9,0.9  l-1.2-0.6l-1.2-1.5l-3.5-2.1l-0.4-0.7l-0.3-0.8l0.4-1v-1l-0.9-2.3l-1-1l-0.4-0.8l-0.3-1.4l-0.1-1.5l-0.6-1.5l-1.7-0.7l-2.3-0.4  l-0.4,0.3l-0.4,0.1L-20,443l-0.5,0.9h-1.4l-0.5-0.8l-1.8-1.9l-1.2-1.3l-1-0.9l-1.2-0.5l-0.4-0.8l-0.3-3.5l-0.9-1.3v-1.3l-1.3-0.9  l-0.3-1.3l0.4-1L-31,429l-1.8,0.6v-0.5l0.1-0.5v-1.2l0.3-0.1l1-0.1v-1.5l0.3-0.6l-0.7-0.4l-0.3-1.4l-0.2-0.6l-0.5-1v-0.4l0.1-0.4  l0.1-0.9l1-1.5V418l-1-0.4l-0.8-0.5l0.1-0.8l0.3-0.4l0.3-0.3l0.3-0.8v-0.5l0.4-0.5l0.3-0.3l0.1-1.2v-1l0.4-0.9l1.2-1.8l0.7-0.1  l4.7,1l1.3,0.3l1.2-0.1l0.7-1.3l0.6-1.5l2.2-1.6l1.2-2l0.7-1.8l0.8-0.6l1.7,0.3l2.2-0.4l1.5-0.6l2-2.7L5.8,382l33.3,28.2l0.4-1.1v-2  l1.4-3.3v-0.6l-0.1-1.4l0-0.9l0.2-0.4l-1.2-1.4l0.1-0.6l0.8-1.4v-1.6l0.1-1.9l1-2.8l-0.4-4.1l-0.2-1.4l0.1-1l0.8-0.4l0.4-0.3  l0.2-0.1v-0.4l-0.3-0.5l0.8-1.9l0.7-1.3L60.2,394.4z"/>
<path id="Essex" inkscape:connector-curvature="0" fill="#D4AAFE" stroke="#FFFFFF" stroke-width="2" stroke-linejoin="round" d="  M211.9,11.5l1.4,0.4l0.1,0.1v0.3l0.1,0.3v1.1l0.1,0.3l0.1,0.1l0.5,1.1l0.4,0.3l0.5,0.4l2.2-1.4l0.4-1.6l0.8-0.3l0.5,1.4l0.8,1.5  l0.8,1.5l1.9,1.5l14.6,11.1l4.4,3.1l-0.4,0.9l-0.8,2l0,1.3l0.1,1.3l-1.3,2.3l-0.6,1.8l-0.6,2.3l-0.4,0.4l-0.3,0.4l-0.1,0.1l-0.4,0.8  l-0.3,0.8l-0.1,0.5l-0.4,0.5l-0.3,0.4l-0.1,0.3l-0.6,1.8l-0.3,1.6l-0.1,0.5v0.9l0.3,0.8l0.3,0.8l0.4,0.8l0.1,0.4l0.3,0.4l0.4,0.1h1  l1.1-0.1l0.3-0.1l0.1-0.1l0.3-0.3l0.1-0.3l0.3-0.4l0.3-0.4l0.1-0.1l0.9-0.5l0.6-0.1h1.8l0.6,0.1l0.4,0.1l0.3,0.1l0.4,0.4l0.1,0.3  v0.8l-0.5,2.4l-0.3,1.3l-0.3,2.8l1.4,1.9l-1.1,0.8l-1,1l-0.4,1.1l-0.4,1l-0.8,1.5l-1.4,1.1l-1.1,1.1l-2.8-2.5l-2.6,0.5l-6.6-0.2  l-1-0.4l-1-2.3l-1.1-1.9l-2.6-1.3l-4.4-0.9l-4.4-1.6l-3-1.1l-1.4,0.1l-1.3,1.3l-1.8,0.8l-1.4-0.6l-1.4-0.5l-0.9-0.4l-1.3,0.3  l-0.8-0.4l-3.5-2.8l-2.3-1.5l-2.6-0.9l1-1.4l0.3-1.3l0.1-0.9l0.8-0.4l0.5-0.4l0.1-0.5l-0.6-0.1l-0.6-0.3l-1-0.6H191l-0.5-0.3  l0.4-0.5l0.6-1V47l-0.5-1.3l0.1-1l0.9-1.4v-3.9l1.1-1.3l0.8-0.9l1.4-0.5l0.3-1.6l0.5-0.5l1.5,0.1l0.6-0.5l0.6-0.9v-1.3l0.1-1.1  l0.8-1.4l0.1-2.3l0.3-1.1l-0.5-1.1l0.6-1.4l0.3-1l0.6-2.1l-0.1-0.3l-1.3-0.9l-1.1-0.4l-0.3-0.6l0.1-1.3l-0.8-1.5l0.9-3.9l-0.4-1.6  l0.5-1.1l0.6-0.8l1.5-0.3l0.9,0.3l0.4,0.8l0.3,0.4l1-0.1l0.8-0.4l0.9-0.3l0.8,0.1h0.5l0.8,0.1l0.1,0.3l0.4,0.4l0.1,0.4L208,10  l0.9,0.3l0.3,0.3v0.4l0.1,0.5l0.8,0.4L211.9,11.5z"/>
<path id="Gloucester" inkscape:connector-curvature="0" fill="#00367F" stroke="#FFFFFF" stroke-width="2" stroke-linejoin="round" d="  M27.4,290.6l1.7,1l0.6,1.3l-0.3,0.9l0.8,0.5l1.2,0.8l0.7,1.1l0.8,1.6l1.5,1l1.2,1.3l2.2,1.3l1.4,1.4l0.5,0.9l-0.3,1.5l0.2,0.5v2.3  l-0.8,1.5v2.1l1,0.9l1.9,1.6v1.9l0.4,1l0.6,0.4l0.3,0.3l0.6,1.4l1.2,1.1l1.3,1l0.8,0.4l0.9,1l0.5,1l0.3,1.1l0.9,1.1l1.2,1.5l1.7,2  l0.5,1v1.9l-0.1,2.6l1,0.9l1.8,0.5l2.8,2.4l0.6,1.8l2.9,1.8l3.1,1.3l6.3,1.8l1.4,1.3l0.4,1.4l1.4,1.1l2.1,3.4l0.4,2l0.6,4.6l0.5,2.4  l0.5,1.3l0.8,0.4l0.9,0.5l0.1,1.4l0.1,0.5v0.5l1.7,1.8l1.4,1l-23.3,25.8l-16.3-15l-6.2-5.8L23,360.3l-5.8-5.3l-2.9-2.8l-1.2-0.1  l-1.2,0.1l-1.2,1L9.4,353H9l-1.7,0.4L6.2,353l-1.6-0.5l-0.5-1.1l-0.7-1.1l-0.1-0.9l-0.3-0.8l-0.5-0.5l-1.3-0.5l-1.6-0.4l-2.2,0.5  l-1,0.3l-1.4-0.9l-1.2-1l-0.9-0.4h-1.4l-1.2,0.4l-0.9-1.1l-0.3-0.3l-1.2,0.4h-0.7l-0.1-0.5l-0.3-0.8l-0.6-0.6l-1-1.4L-15,341h-0.5  l-0.9-0.1l-0.9-0.8l-0.4-0.5l-0.5-0.4l-1.3-0.1l-0.9-0.4l-0.7-0.9l-0.1-0.9l-0.4-0.6l-0.9-0.5l-0.4-0.5l-0.3-0.9l0.1-0.6l0.1-0.9  v-0.5l-0.1-0.3l-0.8-2l-0.4-0.6l-0.9-0.1l-0.5-1.8l-1-0.4l-1.2-0.8l-0.4-0.8l-0.5-0.6l-0.1-0.3l-0.7-0.1l-0.1-0.8l0.7-0.9l0.5-0.6  l-0.1-2.1l-0.8-0.9l-0.3-1.1h-0.7l-1,0.4l-1.4,0.1l-2.1,0.4l-0.5-0.4l0.3-0.3l1.1-0.6l0.2-0.1l1.1-0.6l2-0.9l1-0.5l-1.9-1.7l6.2-4.6  l3.7-3l1.4-1.5l1.7-1.3l1.3-0.8l1-0.6l1-0.5l0.4-0.1l0.9-0.3l1-0.3l1.3-0.1h1.3l1.5,0.1l2.1,0.4l2,0.3l1.4-0.1l1.3-0.1l1.3-0.3  l1.4-0.4l1.6-0.5l1.5-0.3l1.5-0.4l2.6-0.9l2.3-1l1.6-1l0.3-0.2l1.4-1.2l1.6-1.4l0.4-0.6l0.2-0.1l0.4-0.3l0.2-0.1l0.4-0.4l0.7-0.3  l0.2,0l0.4-0.1l0.9,0l1.5,0.2l1.7,0.1l1.5-0.1l1.1-0.3l0.7-0.2l0.1-0.1l0.8-0.6L27.4,290.6z"/>
<path id="Hudson" inkscape:connector-curvature="0" fill="#FFC01B" stroke="#FFFFFF" stroke-width="2" stroke-linejoin="round" d="  M238.6,42.1l1.5,0.4l1,1.4l0.8,0.8l0.8,1.6l0.9,0.3l2-1.6l2.4-0.5l0.1,0.6l-0.1,2.8l0.5,0.8l1,0.3l1.1-0.6l0.3-1.6l-0.6-1.8l0.6-2.4  l2.2-2.5l2.2-2l2.6-1.1h0.4l2.2-0.3l1.8-1l0.9-1.1l1.6-0.4l1.1-1.3l0.5,0.1l1.4,1.9l1.3,0.5l2.7,2.9l-0.3,0.9l0.9,0.5l-1.1,2  l-1.8,3.2l-1.1,2.1l-0.9,1.3l-0.6,1.2l-0.3,1.4l-0.4,1.9l-0.1,0.4l-0.7,3.3l-0.9,5.4l-0.5,3.2l0,0.1l-1.6-0.3l-0.4,0.8l-0.3,0.5  l-1.1,1l-0.5,0.4l-0.6,1l-0.8,1.3l-0.8,0.1h-1.4l-0.6,0.3l-0.4,0.9l-0.3,1.5l-1.4,1h-1.3l-1,0.5l0.6,1l1,0.5l1.5,0.6l0.6,1.3  l-0.6,0.5l-0.8-0.3l-0.8-0.3l-0.8-0.3l-2-0.8l-1-0.3l-0.6,1.1l0.4,0.8l1,0.8l0.4,0.9l-0.9,0.5l-0.8-0.1H248l-1.1-0.1h-1.8l-1,0.6  l-1.4,0.1l-0.4-0.4v-0.5l0.3-1l0.4-1.5l0.5-1.3l0.5-1.5l1.1-1.9l1-0.5l1.1-1.8l1.1-1.8l0.5-1.5v-0.9l-0.3-2.4h-1.3l-1.3,0.4  l-0.6,0.1l-1.4-1.9l0.3-2.8l0.3-1.3l0.5-2.4v-0.8l-0.1-0.3l-0.4-0.4l-0.3-0.1l-0.4-0.1l-0.6-0.1h-1.8l-0.6,0.1l-0.9,0.5l-0.1,0.1  l-0.3,0.4l-0.3,0.4l-0.1,0.3l-0.3,0.3l-0.1,0.1l-0.3,0.1l-1.1,0.1h-1l-0.4-0.1l-0.3-0.4l-0.1-0.4l-0.4-0.8l-0.3-0.8l-0.3-0.8v-0.9  l0.1-0.5l0.3-1.6l0.6-1.8l0.1-0.3l0.3-0.4l0.4-0.5l0.1-0.5l0.3-0.8l0.4-0.8l0.1-0.1l0.3-0.4l0.4-0.4L238.6,42.1z"/>
<path id="Hunterdon" inkscape:connector-curvature="0" fill="#001C65" stroke="#FFFFFF" stroke-width="2" stroke-linejoin="round" d="  M82.8,41.2l1.7,2l1,1l1,0.9l2.7,2.8l0.9,0.8l1.3,1.4l0.9,0.9l1.1,1.1l1,0.9l1.3,1.3h1.3l3.6,0.3l10.4,3.3l1.6,0.5l2.2,1.8h1.3  l0.9,1.1l0.5,1.1l0.6,1.6l0.5,0.8l-0.1,1.5l-1.1,1.5l-0.3,1.1l0.5,0.6l0.8,0.4l-0.1,0.9l-0.5,1.1l-0.3,1.8l-1.5,2.1V76l0.4,1l1,1  l0.4,1.5l-0.8,1.3l0.4,1.1l-1.3,1.3l0.3,0.9l1.6,0.6l1,0.1l0.6,1.6l0.9,1l0.5,0.4l0.1,0.4l-1.3,2.4h-0.5l-0.4-0.3l-0.4,0.6l-1.3,2.3  l-0.1,0.5l0.4,0.3l0.3,0.1l-1,2.8l2.8,1.5l-2.6,4.1l-1.3,2.4l-3.1,1.6l-0.1,0.1l-0.8,1.5l-0.5,1l-1.3,2.8l-1.6,3.1l-0.3,0.5l-0.5,1  l-1.6,3.6l-0.5-0.1l-2.8-2.4l-0.1-0.1h-0.3l-0.4-0.3l-0.3-0.1h-0.1l-0.1-0.1h-0.3l1.7,3.8l0.1,0.5l0.4,1l0.5,1.5l0.4,0.9l0.1,0.3  l0.3,0.5l0.1,0.5l0.3,0.6l0.3,0.5l0.3,0.5v0.3l0.3,0.5l0.4,1.1l0.3,0.6l0.6,1.4l0.3,0.8l0.6,1.5l0.5,1.4l0.5,1.1l1.6,3.6l0.1,0.3  l0.3,0.5l0.3,0.9l0.2,0.2l0.1,0.6l-12.9,2.1l1.3,8.3l-14.1,2.7l2.4,8.8l-16.9,1.7l-0.9-0.9l-0.5-0.9l-0.2-0.9l-0.3-1.8l-0.2-2  l-0.5-2.3L68,155l-0.6-1.3l-0.6-1.2l-0.4-0.9l-0.4-0.9l-0.4-0.7l-0.4-0.7l-0.5-0.6l-0.1-0.1l-0.6-0.5l-0.7-0.4l-0.4-0.2l-0.9-0.5  l-0.5-0.3l-0.5-0.3l-0.8-0.5l-0.9-0.3l-0.6-0.1h-0.2l-0.6,0.1l-0.6,0.1l-0.6,0.2l-1.4,0.6l-1.1,0.4l-0.7,0.2l-1,0.2l-0.7,0l-0.8-0.3  l-0.9-0.4l-0.8-0.6l-0.5-0.4l-0.6-0.6l-0.7-0.5l-0.8-0.4l-0.5-0.1l-0.6-0.5l-0.6-0.4l-0.2-0.5l-0.2-0.8l-0.2-1.2l-0.3-1.3v-0.4  l-0.1-0.1l-0.2-0.8l-0.3-0.9l-0.3-0.8l-0.3-1l-0.1-0.9l-0.1-0.5l0-0.4l0.2-0.8l0-0.8l0.3-0.9l0.3-0.8l0.2-0.9l0.4-2l0.1-0.6l0.3-1.1  l0.1-0.9l-0.1-1.5v-2.3l-0.1-2.3l-0.1-0.6l-0.1-0.5l-0.1-0.9v-1.7l0.1-1v-1.2l0.1-1.3l-0.2-0.9l-0.2-1.1l-0.4-0.9l-0.9-0.9l-0.7-0.8  l-0.9-0.9l-1.2-1.4L39,104l-0.8-0.9l-0.4-0.4l-0.6-0.5l-0.9-0.6l-1.2-0.5l-1.7-0.6l-0.1-0.1l-1.7-0.3l-1.8-0.2l-1,0.1l-0.4,0.1  l-0.8,0.4l-0.6,0.4l-0.7,0.5l-0.7,0.6l-0.7,0.5l-1,0.5l-1.1,0.1l-1.2-0.2l-0.9-0.3l-0.8-0.2l-1-0.7l-1.1-1.2l-0.6-1.4v-0.4l0-0.6  l0.2-0.8l0.3-1.2v-0.5l2.7-2.3l2.6-2.4l0.1-0.3l0.8-2.3l0.8-0.8l1.9-1l0.3-0.1l0.7-1.3l0.3-0.1l1.3-0.6l0.9-0.4l1.4-1l3.8-1.6  l1.9-1.9l1.9-1.5l3.8-3l1.6-0.9l1.4-1.8l0.4-0.5l1.1-0.4l0.6-0.5l0.8-0.4l0.8-0.3l0.9-0.5l0.9-0.4l0.1-0.1l0.5-0.5l0.5-0.4l0.3-0.3  l0.4-0.4l1.3-0.5l1.2-0.3l1.6-0.1l0.6-0.1l1.8-1.5l1.8-1.1l0.8-0.4l0.5-0.5l0.1-0.5l1.3-0.4l1-0.1l0.8-0.9l1.5-2.9l1.8-2.3l0.9-1.1  l1.5-2.3l2.6-2.6l2.4-2.1l0.8-1.1l1.1-0.8l0.5-1.1l0.4-1.5l0.5-0.8l0.8-0.5l1.1-0.6L82.8,41.2z"/>
<path id="Mercer" inkscape:connector-curvature="0" fill="#4582CB" stroke="#FFFFFF" stroke-width="2" stroke-linejoin="round" d="  M111.5,142.5l0.4,0.8l1.8,4.5l0.4,0.9l1,2.8l0.8,1.8l1,2.5l0.6,0.8l13.2-4.8l1.6-0.1l5.5,1.3l0.4,1.3l0.3,0.6l0.1,0.9v1l-1.3,6.3  l-0.5,1.6l-0.1,1.3l0.6,1.8l0.1,1.5l0.3,1l1.6-0.1h1.1l0.9,0.8l1.4,2l1.5,0.3l1,0.3l0.4,0.5l0.9,1.3l4.1,2.5l0.9,1.3l1,0.5l1.3,0.1  l1.6,0.3l0.4,0.1l0.4-0.1l0.9-0.4l0.8-0.3l0.9,0.4l0.5,0.9l1.4,0.8l1.3,1.1l0.9,0.1l1.3,0.1l1,0.3l0.5,0.4l1.6,0.6l0.8,0.5l0.1,0.9  l-0.8,4.7h-0.1l-0.3,0.1l-0.1,0.3v0.5l0.1,0.3l0.3,0.3l0.1,0.1l0.5,0.5l0.3,0.5l0.1,0.5l-0.1,0.1l-0.4,0.3l-0.6,0.4l-0.4,0.3  l-0.5,0.3l-0.1,0.1l-0.8,0.4l-0.6,0.4l-0.4,0.3l-0.3,0.1l-2,1.3l-1.9,1.1H160l-2.8,1.5l-1.8,0.9l-0.3,0.3l-0.4,0.3l-0.1,0.3  l-0.3,0.4l-0.1,0.6l-0.3,0.9l-0.3,0.3l-0.4,0.3l-0.1,0.3l-0.6,0.9l-0.3,0.4l-0.1,0.3l-0.6,1.3l-0.8,1.1l-0.9,1l-1.5,0.1h-0.1  l-0.4,0.1l-0.1,0.1l-0.5,0.1l-0.4,0.3l-1,0.3l-0.8,0.4l-0.3,0.5l-0.4,0.3l-1.1-0.3l-0.5-1.8l-1.5,0.8l-1.1,0.8l4.6,11.6l-0.3,0.1  l-1.8,0.3l-4.5-1l-0.4-0.4v-1.1l-0.5-0.9l-2.6-0.6l-1.8-1.4l-2.7-1.3l-1.8-1.3h-1.6l-0.6-0.4l0.5-0.9v-0.9l-0.1-0.3l-0.1-0.5  l-0.8-0.5h-0.6l-1,0.1l-1-0.1l-0.5-0.3l-0.6-0.6l-0.8-0.5h-1l-0.4,0.1l-0.4,0.4l-0.5,0.6v0.6l0.1,0.5l0.3,0.5l0.3,0.6l-0.1,0.6  l0.4,0.5l0.6,0.6l-1.3,2.3l-0.4,0.8l-1.3,0.9l-1-0.3l0.1-0.2l0.4-1l-0.1-1.5l-0.4-1.2l-0.6-1.1l-0.9-1.1l-0.8-0.6l-0.1-0.1l-0.6-0.5  l-0.4-0.5l-0.2-0.1l-0.9-0.4l-0.5-0.3l-0.5-0.4l-0.6-0.5l-0.5-0.5l-0.4-0.6l-0.2-0.5l-0.3-0.8l-0.1-0.6l-0.3-0.6L108,204l-0.4-0.9  l-0.4-0.9l-0.4-0.8l-0.5-0.9l-0.5-0.7l-0.3-0.3l-0.5-0.4l-0.9-0.8l-0.6-0.4l-1.3-1.1l-1.1-0.7l-0.1-0.1l-1-0.7l-0.9-0.5l-1.1-0.5  L97,194l-0.9-0.4l-1.5-1l-1.5-0.9l-0.5-0.2l-0.4-0.4l-0.1-0.1l-0.3-0.4l-0.4-0.8l-0.6-1l-0.5-0.9l-0.3-1l-0.5-0.9l-0.4-1.1l-0.4-1.3  l-0.6-1.5l-0.5-1.1l-1-1.8l-0.4-0.4l-0.6-0.7l-0.8-1.1l-1.1-1.3l-1-1.3l-0.6-0.4l-0.5-0.4l-0.6-0.5l-0.5-0.2l-0.8-0.4l-0.5-0.1  l-0.6-0.1l-0.8-0.1l-0.9-0.3l-0.8-0.5l-0.1-0.1l-0.6-0.6l-0.9-0.7l-1.6-1.8l-0.5-0.6l-0.5-0.6l-0.7-0.9l16.9-1.7l-2.4-8.8l14.1-2.7  l-1.3-8.3L111.5,142.5z"/>
<path id="Middlesex" inkscape:connector-curvature="0" fill="#78B5FE" stroke="#FFFFFF" stroke-width="2" stroke-linejoin="round" d="  M170.8,94.3l0.8,1l1.4-0.3l12.4-1.1l17.1-1.9l3.1-0.3l0.3,0.3v1.6l0.5,0.9l1.1,1.4l0.5,0.5l0.3,0.1l0.5-0.1l3.1-0.5l2.1-0.5l1.1-0.3  l0.5-1.1l0.1-0.4l2.6,0.5l0.8-0.1l1-0.3l2.5,0.3l1.1-0.3l0.9-0.3l0.4,0.1l0.4,0.6l0.4,0.8l0.3,0.1v0.4l-0.5,1.6l-0.6,1.8l-0.4,2.5  l-0.5,2.1l-0.6,0.8l-1.8,0.3l-1.1,0.3l-1,0.5l-1.4,1.1l-0.9,1.8l-0.5,1.1l-0.3,1.4l0.3,1.8l0.4,1.3l-0.1,1l-0.5,1l-0.8,0.9l-0.5,1  l-0.4,0.9l-0.1,1l-0.3,0.9l0.1,1v1.3l-0.6,1.3l-1-0.1l-0.6-0.8l-0.8-1.3l-0.9-0.6l-1.4-0.5l-2-0.8h-1.7l-1.3,0.3l-0.8,1l-0.5,1.4  l-1.5,1.6l-1.3,1.3l-1.8,1l-1.3,0.9l-1.5,1.3l1.1,0.5l1.7,0.4l3.2-0.4l0.9-1l0.8-2l1.3-2.6l2.2-0.8l2.4,0.8l3.6,2.8l0.1,1.6l1.4,2.9  l1.8,0.9l2.4,1.3l2.8,1.5l1.7,0.5l-0.4,1.5l-1.6,0.5l-1,0.1l-1.9,2.4l0,0.3v1.9l-0.1,4v1.6h-0.1l-0.1,0.3l-1,1l-3.9,4l-5.9,6.1  l-19.7,21.7v0.3l-0.1,0.3l-0.1,0.1v0.8l-0.5,1.3L186,183h-0.1l-0.8,0.4l-6.9,3.9l-5.3,3.3l-0.5-0.1l-0.4-0.3l-0.6-0.1h-1.6l-0.3-0.1  l-2.1-0.4l0.8-4.7l-0.1-0.9l-0.8-0.5l-1.6-0.6l-0.5-0.4l-1-0.3l-1.3-0.1l-0.9-0.1l-1.3-1.1l-1.4-0.8l-0.5-0.9l-0.9-0.4l-0.8,0.3  l-0.9,0.4l-0.4,0.1l-0.4-0.1l-1.6-0.3l-1.3-0.1l-1-0.5l-0.9-1.3l-4.1-2.5l-0.9-1.3l-0.4-0.5l-1-0.3l-1.5-0.3l-1.4-2l-0.9-0.8h-1.1  l-1.6,0.1l-0.3-1l-0.1-1.5l-0.6-1.8l0.1-1.3l0.5-1.6l1.3-6.3l0.9-0.3l0.4-0.3l0.4-0.3l1.5-0.9l0.3-0.1l2.8-4.6l1.1-5.8l0.3-0.3  l1.4-0.9l0.3-0.1l2.2-0.6l1.3-0.3l4.9-3.5l0.5-0.3l2.1-2.1l0.4-0.4l1.6-1.6l3.4-3.3l0.5-0.4l0.5-0.5l0.8-0.9l0.9-1.4l0.3-0.4  l0.4-0.5l0.3-0.4l0.9-0.6l0.3-0.1l2.6-1.1l1.5-0.8l0.3-0.9l-0.6-1.9l-0.5-2l-4.1-0.9l-0.8-0.4l-1.7-3.6l-1.5-1.8l-2.3-2l-1.1-1.4  l-1.6-3.1l-0.1-0.6l-0.4-1.4l0.9-2.8l1.9-1.9l3.1-1.5l2.8-1.1l1.8-1.5L170.8,94.3z"/>
<path id="Monmouth" inkscape:connector-curvature="0" fill="#00367F" stroke="#FFFFFF" stroke-width="2" stroke-linejoin="round" d="  M222.6,134.9l1.4,0.4l1.7,1.3l0.4,1.1l-0.3,0.9l-0.5,0.5l1.5-0.1l2.7-1.6l1.4-2.8l1.1-1.4l1,0.8l1.8,1.5l2.3,0.4h1.9l1.1-1.4  l0.4-0.1h1.2l1.6,1l1.6,1.1l1.1,0.9l2,0.4l3,1.1l2.4,1.5l1.4,1.3l1.9,1.1l1,0.9l1.9,0.5l1.6,0.3l1.3,0.8l2.1,0.4l4.6,0.6l1.8,0.8  l0.9,1.3l0.8,1.3l1,1.1l0.1,1.3l0.1,1.6l0.3,1.4l-0.1,1h-0.8l-0.4-0.5l-0.6-0.6l-0.5-0.4l-0.5-0.8l-1.6-0.3l-1-0.5l-1.1,0.5  l-0.5,0.6l-0.9,0.8l-1,0.9l-0.6,0.1l-0.9,0.4l-0.6,0.6l-0.4,0.8l-1.3,0.4l-1.1,0.4l-1.1,1l-2.1,1.3l-0.5,0.9l0.3,1.3l0.9,0.5l1-0.5  l0.8-1l1-0.8l1.3-1h0.6l1.5-0.1l0.6-0.3l0.6-1.4l0.9-0.6l1.3-0.3l1.1-0.8l1.7,0.1l1.1,0.4l1.1,0.5l1.3,0.5l0.3,0.8l-0.1,1.8  l-0.5,1.4l-1.3,1.1l-1.6,0.8l-1,0.9l0.5,0.8l-0.4,0.9l-1.6,0.6l-1.2-0.4h-0.9l0.1,0.8l0.6,0.9l0.4,1.1l-0.5,1v0.9l0.4,0.5h0.8  l0.4-0.4l0.4-0.8l0.6-0.9l0.9,0.3l0.3,0.6l1,0.3l0.5-0.9l0.1-0.4l0.5-0.8l-0.3-1.1l0.8-0.5l0.9,0.1h0.9l0.9-1.9l0.5-1.8l0.3-1.6  l0.4-2.3l-0.3-1.8l-0.1-2.5v-1.1l-0.3-1.1l-0.1-0.9v-0.6l-0.3-1.8v-1.3l-0.6-1.6l-1.4-3.1l-1.1-2.9V140l0.5-1v-1l-0.9-0.9l-0.6,0.1  h-0.9l-1.4-0.3l-0.1-1.5v-1.3l-0.1-0.9l-0.5-1.3l-1-0.6v-0.8l0.6-0.5l1-0.4l0.6,0.5l1.1,0.8l0.6,0.4l1.4,1.9l0.6,1.1l0.6,1.8  l0.8,2.3l0.4,1.5l0.6,0.9l0,1.5l0.3,2.4l0.5,2.1l0.1,1.9l0.1,1.9l0.5,1.4l0.1,0.4l0.3,0.6l-0.1,1.9v2.1l-0.3,2.3l-0.4,3v3.1l0.5,2.6  l-0.3,1.5l-0.1,0.5l-0.5,2.4l-1,1.8l-0.5,1.9l-0.1,2.8l0.1,1.5l0.1,2.3l-0.5,3.1l-0.6,2.3l-0.4,1.9l-1,2.8l-0.9,1.8l-0.5,1.1  l-0.6,1.8l0,1.9v2.8l-0.6,1.9l-1,2.4l-0.5,2.1l-0.9,0.5l-1,0.1l-1.4-0.6l-0.5-0.5l-0.6-0.9h-1l-0.3,0.6l-0.5,0.9l-1.1,0.1l-0.6-0.5  l-1-0.9l-1.1-0.3l-0.5,1l0.1,0.8l0.6,0.6l1.4,1.4l1.9,0.8l1.8,0.3l1.4-0.5l1.4-0.8l0.6,0.1l0.5,0.8l-0.1,1.5l-0.3,1.4l-0.8,2.9  l-0.4,2l-0.8,2.9l-0.3,3.1v2.6l-0.1,2.6l-1.3,1.4l-1.7-0.1l-0.9-0.4l-0.6-0.3l-0.5,0.4l-1.4,0.8l-1.8,0.9l-1.3,0.3l-0.8-0.6  l-0.6-0.8l-1.2-0.8l-0.9-1.8l-0.5-1.4l0.5-1.8l-2.6-2.1l-0.5-0.1l-1.1-0.5l-0.5-0.8l-0.4-1l-0.8,0.8l-0.1,0.4l-4.9,6.6l-3.5,3.8  l-0.3-0.4l-0.8-0.6l-0.3-1.8l-0.5-0.9l-1.3-0.1l-0.6-0.3l-1.1-0.5l-1-0.1l-1.4-0.1h-1.1l-1-0.1l-0.8-0.2l-0.5,0.1l-1.5,0.8l-1.6,0.3  h-0.9l-1.8-0.3l-2-0.6l-0.8-1l-0.3-0.8l0.3-1.8l0.3-1l-0.6-1.6l-0.9-2.5l-1.1-1.4l-0.8-0.6l-0.3-2.5l-0.1-0.9l-0.5-1.1l-0.5,0.1  l-6.3-0.2l-6.3-0.4l-17.7-0.4l-8.8,7.7l-16.3,14.8l-5.6,3.3l-0.6-1.4l-2.3-4.4l-5.4-11.1l-4.6-11.6l1.1-0.8l1.5-0.8l0.5,1.8l1.1,0.3  l0.4-0.3l0.3-0.5l0.8-0.4l1-0.3l0.4-0.3l0.5-0.1l0.1-0.1l0.4-0.1h0.1l1.5-0.1l0.9-1l0.8-1.1l0.6-1.3l0.1-0.3l0.3-0.4l0.6-0.9  l0.1-0.3l0.4-0.3l0.3-0.3l0.3-0.9l0.1-0.6l0.3-0.4l0.1-0.3l0.4-0.3l0.3-0.3l1.8-0.9l2.8-1.5h0.1l1.9-1.1l2.1-1.3l0.3-0.1l0.4-0.3  l0.6-0.4l0.8-0.4l0.1-0.1l0.5-0.3l0.4-0.3l0.6-0.4l0.4-0.3l0.1-0.1l-0.1-0.5l-0.3-0.5l-0.5-0.5l-0.1-0.1l-0.3-0.3l-0.1-0.3V190  l0.1-0.3l0.3-0.1h0.1l2.1,0.4l0.3,0.1h1.6l0.6,0.1l0.4,0.3l0.5,0.1l5.3-3.3l6.9-3.9l0.8-0.4h0.1l0.1-0.1l0.5-1.3v-0.8l0.1-0.1  l0.1-0.3v-0.3l19.7-21.7l5.9-6.1l3.9-4l1-1l0.1-0.3h0.1v-1.6l0.1-4v-1.9l0-0.3l1.9-2.4l1-0.1l1.6-0.5L222.6,134.9z"/>
<path id="Morris" inkscape:connector-curvature="0" fill="#00367F" stroke="#FFFFFF" stroke-width="2" stroke-linejoin="round" d="  M107.5,7.3l1.8-0.4h0.9l1-0.5L112,6l1-0.9h0.8l0.6,0.3l0.3,0.5l0.9,0.5l1-0.1l1.3,0.8l0.9,1l0.3,1l0.3,0.9l0.4,0.6l1.1,0.1l1.5-1.5  l1.5-0.6l3.6-1.3l2.1-1.3l0.4-0.4l0.6-0.6l0.3-0.2h0.1l0.5-0.1l0.3-0.1l0.1-0.1l0.1-0.6l-0.1-0.3L131.6,3l0.3-0.6l0.1-0.3l0.5-0.5  l1.8-1.3l0.1-0.1l0.1-0.1l0.6-1l0.4-1.3l0-0.3v-0.9L135.4-4l-0.1-0.3l-0.5-0.6l-0.4-0.4L134-6v-0.8l0.3-0.3l6.4-8.2l1.4-1.4l0.3-0.4  l0.4-0.4l0.4-0.5l0.4-0.4l10.2-11.8l0.3-0.3l0.3-0.5l2.3-2.7l1.1-1.4l2.1-2.4l3.7-3.9l2.1,0.8l1.5,1.8l0.3,1.5l0.1,0.5l-0.4,0.8  l-0.4,0.8l-0.6,0.6l-0.4,0l-0.3,0.1l-0.8,1l-1,3.4l-0.3,1.3l0.4,1.5l0.6,0.3l0.6-0.3l0.8-0.8l0.5-0.6l0.6-0.6l0.9-0.8l3.1-1.2  l2.4-1.4l1.1,0.5l0.8,0.6l0.9,1l2,2.5l0.4,0.9l-0.3,0.8l-0.5,1l-0.4,0.8v1l0.9,0.4l1-0.5l0.3-0.5l0.4-0.8l0.8-0.5h0.9l1.1,0.4  l0.8,0.4l1.1,0.6l1.4,1.8l0.1,0.8l1,0.5l1.4,0.1h0.6l1.6-0.1l1.5-0.6l0.8,0.1l0.9-0.3l0.1,0.4l0.5,1.6h0.6l1.3,0.1l1.3-0.1l0.6,0.3  l0.6,1.3l1.9,0.1l1.5,0.1l1,1l2.1-0.4l1.1,0.4l0.5,1l0.3,1.4l-0.8,0.8l-0.5,0.9l-0.1,0.7v0.4l0.4,0.5h1l1.3,0.1l0.4,0.6l0.6,1.8  l0.3,1l-0.4,1.4l0.1,0.4l0.5,1.4l-0.3,2.1l-0.6,2.4l-0.9,1.9l-0.4,0.8v0.9l0.8,1.4l0.4,0.5l0.8,0.5l1,0.4l0.6,0.1l0.6,0.3l0.5,0.4  l0.3,0.6L213,8.4l-0.1,0.8l-0.6,1.3l-0.4,1.1l-1.8,0.3l-0.8-0.4l-0.1-0.5v-0.4l-0.3-0.3L208,10l-0.3-0.1l-0.1-0.4l-0.4-0.4l-0.1-0.3  l-0.8-0.1h-0.5l-0.8-0.1l-0.9,0.3l-0.8,0.4l-1,0.1L202.1,9l-0.4-0.8L200.8,8l-1.5,0.3L198.7,9l-0.5,1.1l0.4,1.6l-0.9,3.9l0.8,1.5  l-0.1,1.3l0.3,0.6l1.1,0.4l1.3,0.9l0.1,0.3l-0.6,2.1l-0.3,1l-0.6,1.4l0.5,1.1l-0.3,1.1l-0.1,2.3l-0.8,1.4l-0.1,1.1v1.3l-0.6,0.9  l-0.6,0.5l-1.5-0.1l-0.5,0.5l-0.3,1.6l-1.4,0.5l-0.8,0.9l-1.1,1.3v3.9l-0.9,1.4l-0.1,1l0.5,1.3v0.8l-0.6,1l-0.4,0.5l0.5,0.3h0.6  l1,0.6l0.6,0.3l0.6,0.1l-0.1,0.5l-0.5,0.4l-0.8,0.4l-0.1,0.9l-0.3,1.3l-1,1.4l-3.7,3.3l-0.3,0.1l-2.6,2.5l-0.1,0.3l-1.8,1.5h-0.1  l-1.8,1.9h-0.1l-1.8,2.4l-0.1,0.4l-3.1,1.5l-1.3,0.6l-0.3,0.6v0.4l0.3,0.5v0.3l-0.5,1.3l-0.3,0.1l-0.6-0.1h-0.4l-0.4,1l-2.3,1  l-1.3,0.4l-1,0.3l-0.9,0.1l-1,0.5l-0.5,0.3l-0.4,0.3l-1.1,0.4l-0.4,0.4l-0.3,0.6l-0.4,0.9l-0.6,0.8l-1,0.4l-1.3-0.1l-1-0.6l-0.3-1.4  l-0.3-1.3l-0.3-0.6l-0.5-0.5l-0.1-0.5l1-1l0.3-1.1l-0.4-1v-1.8l0.9-0.9l1.3-0.3l0.5-2.9l-0.9-1.4l-1.1-1.4l-0.3-1.4l-0.8-1l-0.5-0.4  l-0.1-0.4l0.3-0.5l-0.1-0.6l0.3-0.9l-0.8-0.4l-1.1-0.5l-1.7-0.5l-0.3-1l0.3-1.3l-0.6-2.1l-0.4-1.1l-0.4-1.3l-0.4-0.5l-7.1,2.3  l-1.3,0.4l-1.1,0.1l-3.4,1.3L116,59.9h-1.3l-2.2-1.8l-1.6-0.5l-10.4-3.3l-3.6-0.3h-1.3l-1.3-1.3l-1-0.9l-1.1-1.1L91.4,50l-1.3-1.4  l-0.9-0.8l-2.7-2.8l-1-0.9l-1-1l-1.7-2l2.1-0.9l1.8-0.9l0.6-1.5h0.1l2-0.5l1.1-1l1-1.1l0.4-1.1l1.1-1.1l0.8-1.4l1.3-2.4l0.9-0.4  l0.8-0.8l-0.1-1.8l-0.4-1l0.1-0.6l0.6-0.3l1.7-0.9l-0.1-1.3l0.3-0.9l1-0.4v-1.8L99.6,18l-0.3-1.3l0.1-2l1.4-1l1.4-0.5l0.8-0.3  l0.5-1.9l1.4-1.3l1.8-1.4L107.5,7.3z"/>
<g id="Ocean" transform="matrix(0.025,0,0,0.025,-10.579614,497.33971)">
	
		
	
		
	
		
	
		
	
		<path id="_x33_046" inkscape:connector-curvature="0" fill="#001C65" stroke="#FFFFFF" stroke-width="2" stroke-miterlimit="10" d="   M10406.2-6852.5l20.9,35l-5,66l-5.9,55l-25,71l-26,45l-35,51l-11,35l-35,55l-31,55.9l-20,65l-31,91l-25.9,60l-30,71l-21,75l-46,106   l-35,91l-57,85l-50.9,85.9l-30,56l-57,95l-41,61l-5,40l-40,71l-47,70l-51,66l-30,45l-26,65l-46,100.9l-50.9,81l-36,75l-25,36   l-31,60l-51,50l-57,96l-46,61l-35,60l-31,60.9l-31,45l-15,20l-31,66l-30,50l-25.9,60l-36,41l-31,20l-15-10l-10-20v-40l46-46l15-35   l5-45v-56l5-35l10-10l46-10l30.9-20l26-40.9l20-80l5-36v-25l26-15l46-45l20-41l16-45l15-35l25.9-50l25-26l36-20l36-15l15-30l5-30   l10-41l31-40l31-50l45.9-90.9l41-61l41-80l30-46l21-45l10-50l5-35l10-51l21-45l35-46l25.9-35l15-50l21-30l20-20.9l31-25l41-30   l20-35l20.9-56l31-55l30-20l5-31v-50l31-50l26-31l25-30l21-45l15-50l5-41l-16-40l-5-20l-10-30v-20l15-20.9l26-5l35.9-5l61-45l31-96   l15-91l31-75l30-50L10406.2-6852.5z"/>
	
		
	
		
	
		
	
		
	
		
	
		
	
		
	
		
	
		<path id="_x32_954" inkscape:connector-curvature="0" fill="#001C65" stroke="#FFFFFF" stroke-width="2" stroke-miterlimit="10" d="   M6545.2-10359.5l226-130.9l650-590l353-308l707,14l251,15l252,9l20-5l21,46l5,35l10,100l31,26l46,55l35.9,101l26,65l-10,40l-10,71   l10,30l31,40l82,25l72,10h36l66-10l62-30l20-5l31,9l41,5h46l56,5l40.9,5l42,20l25,10l51,5l20.9,36l10,70l31,25l10,15l139-151   l194.1-262l5-15l30.9-30.9l15,40.9l21,30l46,20l20,5l103,85l-20,71l-10.9-35l-20,15l-15,30l20,136l15.9,70l61,66l52,5l82,30l66-21   l72-50l92-15l72,14l36,21l5,5l16,25v55l5,71l-5,65l-20,101l-21,75l-20,65.9l-36,85l-20,51l-21,75l-20,56l-20,111l5,55l5,101   l-41,160.9l-15,201l-25,116l-20,91l-20.9,75l-15,106l-25,136l-21,95.9l-5,136l-25,171l5,100l6,91l-11,86l-25,90l-15,90.9l-10,60v81   l-15,91l-16,45l-15,55l-10,81v191l-10,60.9l-15,50l-10,40l-21,30l-5,26l-10,5l-31,5l-25.9-35l-20-16l-36-4h-26l5-31l5-20l21-15   l36,15l30.9,5l25-40v-45.9l-15-40l-15.9-50l5-50v-31l15-35l30.9-75l26-71v-40l-1-101l-5-96l5-85l15-85.9l16-100l4-81l-5-50v-81   l5-45l10-71l10-75l11-86l15-85l15-30.9l15-35l26-45l15-56l10-60l-5-50l-20-46l-31-30l-16-25l-5-40l21-20l36-31l25-75l15-71l16-70   l5-76l25-80l10-45.9l31-70l15-46l15-45l10.9-80l-5.9-41v-116l-5-65v-55l20-56l15.9-55l15-30l5-25.9l-10-5l-67-15l-31,20.9l-41,30   l-30,20l-52,35l-41,16l-51,20l-61-20l-67-10l-92-15l-47-50l-55.9,25l-5,45l30.9,30l51,5l26,31l31,25l51-11h50.9l21,31l56-21l56-25   l72-15l57,10l5,45l-5,20l-10,61l-21,35l-72,55l10.9,56l-25.9,75l-56,5l-36,6l-21-31l-10-45l-31-25l-45.9,15l-36-10l-31-15l-41-30   l-36-50l-30-30h-40.9l-31,30l5,20l21,15l45.9,40l20,25l-50.9,66l10.9,30l25,5h103l61,20l30.9,25l21,30l-16,40.9l-30,10l-25.9-10   l-21-15l-30,30l-16,20h-46l-46-15l-45.9-10l-10,20l-21,20l-20,56l15,40l31,20l62,20l46-15l20-25l26-15l31,20l15,10v25l-5,20l-26,20   l-5,25l16,16l20,25l30.9,20l10,20v15l-20,40l-15,56l-20.9,20l5,20l10.9,30l5,15l-10.9,20l-5,36l-15,45l-25,30l-36-5l-26,5l-15,21   l-31,30l-31,5l-40.9-10l-61-10l-52-10l-56-50l-20.9-20l-41-31l-36,11l-36,10h-35l-82,5l5,20v55.9l20,15h16l45.9-5.9h36l56,15l31,15   l40.9,40.9l46,30l36,25l31,10l61-15l62,5l67-0.9h56l45.9-5l31,10l15,20v35.9l-20,20l-31,15l-25,15l-45.9,40l-31,41l-31,60l-51,91   l-25,81l-21,60l5,65l6,36l-21,40l-30.9,5h-66l-36,5l-21,5l-10,40.9l11,15l20,5l36,10h41l35.9-10.9l51,5l31,10l31,40.9l-26,25   l-41,15l-41,10l-20,15l-15.9,41l-5,45l-25,75l-31,51l-51,25l-57,15l-40.9,26l0.9,35l25,10l41-5l41,10l11,45l-52,15l-77,36l-25,75   l5,55l-20,80.9l-46,40l-31,31l-36,40l21,50l15,30l26,36v25l-15,20l-21,30l-10,25l-21,21l-10,40v20l-5,30v51l-5,45l11,55l36,10   l41,10l76,10l62,10l5,15v25l-15,65.9l10,25l21,25l-5,30l-36,5h-21l-30-5l-40.9,1v20l15,20l10,20l25.9,10l26,5h51l56,15l-5,20   l-15,20l-26,15l-10,15l-10,41l-36,5l-46-20l-25.9,5l-15,45v60l-21,11l-61,30l-21,40l-15,25l-15,41l10,10l31,5l36,10l5,20l-26,20   l-36,20l-61,40.9l-60.9,10l-26,30l-15,25l-21,15l5,41l-5,30l-46,35l-10,50l-5,11l-26,40l-20,5l-25.9-15l-36-5l-25,25l-62,20l-36-10   l-10-10l-20.9,10l-15,26l10,80l20.9,40l-5,10l-35.9,6l-36-11v56l-15,30l-36,35l-5,15l-5,30.9l20,35l16,35l-21,20l-30,10l-52,6   l-30-36l-20.9-20l-62,20l-10,26l11,45l-5,45h-26l-26-45l-20-25l-16,5l-30,20l-52,30l-20,51l-10,70l-5,56l-41,5l-46,20l-6,25l-10,30   l-20,41.1l-35.9-10l-21-36.1h-30l-11,31.1l-5,65l11,45l31,30.9l35,25l5.9,30l10,45l41,10l20,20l21,40l41,26l67,25l56,50l-15,35   l5,45l21,41l-67,70l-25,35v61l-57-15h-61l-57,40l-10-15l-10-10l10-40l5-35l-5-41l15-15l41-10l-10-25l-36-35l10-30l16-31l-57-35   l-67-55l-71,40l-82-15l-6-50l-56-25l-31,30l16,71l-77-15l-93-10l-61,5l-46,5l-15.9-45l-5-76l-51-35l-72-45l-36,15l-15-40l25-15v-46   l-15-30l-5.9-25h15.9l10-10l21-5h15l26,5l41-5l10-15l5-25l15-20.9l5-25l6-20v-30l15-45l5-26.1l5-5l5-20l5-10l10.9-20l5-10l5-20   l5-81v-95l-0.9-51.1l10-236l39-1395l-247-568l-5-15l-31-71l-15-40l-5-10l-15.9-35l-103-257l-56-140l-72-177l-11-20l-128-291   l-47-111l-10-30l-5-20l-10-20.9l-11-15l-25-65l-11-35l-40.9-96l-5-15l-15-30l-11-25l-20-66l-52-125l-10-31l-10-25l-11-25l-20-45   l-10-25l-5.9-20l-25-56l-5-20l-11-15v-10l-5-15l-26-56l-72-160.9l-77-241l-20-40l-67-141l-41-106l-5.9-10l-41-95l-10-21l-16-40   L6545.2-10359.5z"/>
</g>
<path id="Passaic" inkscape:connector-curvature="0" fill="#78B5FE" stroke="#FFFFFF" stroke-width="2" stroke-linejoin="round" d="  M219.8-57.3l1.8,1l2.6,1.4l-1.4,3.7l-2.1,5.3l-0.4,0.9l-1,2.7l-0.9,2.5l-0.3,0.4l-0.6,1.9l-0.3,0.5l-0.5,1.2l-0.3,0.6l-0.1,0.4  l-0.1,0.5l-0.6,1.8l-0.3,0.4l-1.4,3.8l-1.5,3.9l-0.3,0.7l-0.5,1.4l0.4,0.3l0.9,0.9l0.5,0.5l1.1,2.5l0.3,0.6l0.5,0.9l0.9,1.3l0.4,0.6  l2.7,2.4l2.5,1.1l3.6,0.3l2.1,0.3l5.3,0.7l1-1.4l0.8-0.1l0.6,0.5l2.7,2.1l0.9,0.5l1.1,1l-0.4,0.9l-0.1,0.9l-0.6,1L238.4-3l-0.3,0.3  l-0.4,0.4l-0.1,0.5l0.5,0.5h0.4l0.3,0.1l0.3,0.1l0.3,0.6l0.5,1l0.1,0.3V1l-0.1,0.4l-0.1,0.1l-0.3,0.4l-0.1,0.4v0.4l0.4,0.6l0.9,0.4  l0.5,0.1l0.3,0.1l0.3,0.6v0.6l-0.3,1.8l-0.1,2.6l0,0.6v0.3l0.1,0.4l0.1,0.3l0.4,2.5L242,14l0.1,0.3l0.3,0.3l0.3,0.1l0.1,0.1l0.3,0.1  l0.1,0.1h0.1l0.9,1.3l0.1,0.1l0.9,1.4l1.1,4.5l-0.8,0.9l-0.9-1.5l-0.3-0.3l-0.1,0.1l-0.8,0.3l-0.1,1l0.1,0.9v0.9l-0.4,2.5l0.6,1.5  l0.1,0.3v0.9l-0.1,0.5v0.3l-0.1,0.3l-0.3,0.8l-0.1,0.3l-0.4,0.4l-0.4,0.1l-1,0.4l-4.4-3.1l-14.6-11.1l-1.9-1.5l-0.8-1.5l-0.8-1.5  l-0.5-1.4l-0.8,0.3l-0.4,1.6l-2.2,1.4l-0.5-0.4l-0.4-0.3l-0.5-1.1l-0.1-0.1l-0.1-0.3v-1.1l-0.1-0.3V12l-0.1-0.1l-1.4-0.4l0.4-1.1  l0.6-1.3l0.1-0.8l0.4-0.9l-0.3-0.6l-0.5-0.4L212,6.2l-0.6-0.1l-1-0.4l-0.8-0.5l-0.4-0.5l-0.8-1.4V2.5l0.4-0.8l0.9-1.9l0.6-2.4  l0.3-2.1l-0.5-1.4l-0.1-0.4l0.4-1.4l-0.3-1l-0.6-1.8l-0.4-0.6l-1.3-0.1h-1l-0.4-0.5v-0.4l0.1-0.7l0.5-0.9l0.8-0.8l-0.3-1.4l-0.5-1  l-1.1-0.4l-2.1,0.4l-1-1l-1.5-0.1l-1.9-0.1l-0.6-1.3l-0.6-0.3l-1.3,0.1l-1.3-0.1h-0.6l-0.5-1.6l-0.1-0.4l-0.9,0.3l-0.8-0.1l-1.5,0.6  l-1.6,0.1h-0.6l-1.4-0.1l-1-0.5l-0.1-0.8l-1.4-1.8l-1.1-0.6l-0.8-0.4l-1.1-0.4h-0.9l-0.8,0.5l-0.4,0.8l-0.3,0.5l-1,0.5l-0.9-0.4v-1  l0.4-0.8l0.5-1l0.3-0.8l-0.4-0.9l-2-2.5l-0.9-1l-0.8-0.6l-1.1-0.5l-2.4,1.4l-3.1,1.2l-0.9,0.8l-0.6,0.6l-0.5,0.6l-0.8,0.8l-0.6,0.3  l-0.6-0.3l-0.4-1.5l0.3-1.3l1-3.4l0.8-1l0.3-0.1l0.4,0l0.6-0.6l0.4-0.8l0.4-0.8l-0.1-0.5l-0.3-1.5l-1.5-1.8l-2.1-0.8l0.6-0.9  l2.3-2.8l25.3-29l7,4.7l1.8,1.2l1.6,0.9L219.8-57.3z"/>
<path id="Salem" inkscape:connector-curvature="0" fill="#00367F" stroke="#FFFFFF" stroke-width="2" stroke-linejoin="round" d="  M43.9,379.4l-0.7,1.3l-0.8,1.9l0.3,0.5v0.4l-0.2,0.1l-0.4,0.3l-0.8,0.4l-0.1,1l0.2,1.4l0.4,4.1l-1,2.8l-0.1,1.9v1.6l-0.8,1.4  l-0.1,0.6l1.2,1.4l-0.2,0.4l0,0.9l0.1,1.4v0.7l-1.4,3.3v2l-0.4,1.1L5.8,382l-14.6,15.7l-2,2.6l-1.5,0.6l-2.2,0.4l-1.7-0.3l-0.8,0.6  l-0.7,1.8l-1.2,2l-2.2,1.6l-0.6,1.5l-0.7,1.3l-1.2,0.1l-1.3-0.3l-4.7-1l-0.7,0.1l-1.2,1.8l-0.4,0.9v1l-0.1,1.2L-32,414l-0.4,0.5v0.5  l-0.3,0.8l-0.3,0.3l-0.3,0.4l-0.1,0.8l0.8,0.5l1,0.4v0.5l-1,1.5l-0.1,0.9l-0.1,0.4v0.4l0.5,1l0.2,0.6l0.3,1.4l0.7,0.4l-0.3,0.6v1.5  l-1,0.1l-0.3,0.1v1.1l-0.1,0.5v0.5l-1.4,0.5l-1.5-0.9l-1-1.8l-1.3-1.1l-1-0.6l-1.5-1.4l-0.9-2.3l-1.3-2.5l-2.7-2.8l-2.3-2.4  l-1.8-0.8l-0.8-0.5l-1.7-1.6l-1.4-1.2l-1.6-0.1l-1,0.4h-1.7l-1.8,1.1l-1.9-2.1l-0.7-0.9l-1.8-2.6l-1.1-2.5v-1l0.2-0.8l0.5-1.6  l0.3-0.6l0.4-0.9h1.6l2.3-0.1l2.4-0.1l0.4-0.2l0.4-0.2l0.4-0.2l-0.5-1.5l-0.1-0.3l-0.1-0.6l0.1-0.8l0.1-0.4l0.3-0.6l0.1-0.6  l-0.1-0.4v-1.1l0.3-1l0.1-1.4v-1l-0.1-0.3l-0.3-0.2l-0.4-0.3l-0.3-0.5l-0.1-0.4l0.1-0.8l0.4-0.5l0.9-0.8l0.8-0.8l0.5-0.6l0.4-0.6  l0.4-0.7l0.4-0.8l0.3-0.9l0.6-1.4l0.1-1l-0.1-0.9l-0.4-0.9l-0.5-0.6l-0.8-0.6l-1.8-0.5l-0.5-0.4l-0.4-0.4l-0.3-0.5l-0.4-0.5v-0.4  l-0.1-0.4l-0.4-0.4l-0.5-0.1l-0.5-0.1l-0.5-0.4l-1-0.6l-0.8-0.8l-0.4-0.6l-0.1-0.4l-0.1-0.5l-0.4-1.8l-0.4-1.7l-0.1-1.3l0.2-0.5  l0.5-1.4l0.4-0.8l0.5-0.6l0.6-0.5l0.4-0.4l0.4-0.5l0.5-0.5l0.7-0.5l0.9-0.4l0.8-0.5l0.1-0.3l0.3-0.3l0.4-0.5l0.3-0.6l0.4-0.5  l0.4-0.6l0.5-0.5l0.5-0.5l0.5-0.6l0.5-0.6l0.5-0.8l0.4-0.8l0.1-0.8l0.1-1.1l0.1-0.6l0.1-1.1l0.1-1l0.1-1l0.3-0.8l0.4-0.6l0.5-0.4  l0.9-0.8l0.3-0.4l0.6-1.1l0.6-1.1l0.1-0.5l0.3-0.5l0.4-0.1l0.3,0.1l0.6,0.1h0.6l0.3-0.4l0.2-0.4l0.1-0.5v-0.8l0.3-1.1l0.1-0.8  l0.1-0.9l0.3-0.8l0.5-1l0.4-0.9l0.5-1l0.5-1.1l0.4-1.1l0.3-0.8l0.4-0.8l0.3-0.8l0.4-0.5l0.5-0.5l0.5-0.3l0.5-0.8l0.8-0.8l1.5-1.6  l1.5-1.4l0.7-0.6l0.5,0.4l2-0.4l1.4-0.1l1-0.4h0.7l0.3,1.1l0.8,0.9l0.1,2.1l-0.5,0.6l-0.7,0.9l0.1,0.8l0.7,0.1l0.1,0.3l0.5,0.6  l0.4,0.8l1.2,0.8l1,0.4l0.5,1.8l0.9,0.1l0.4,0.6l0.8,2l0.1,0.3v0.5l-0.1,0.9l-0.1,0.6l0.3,0.9l0.4,0.5l0.9,0.5l0.4,0.6l0.1,0.9  l0.7,0.9l0.9,0.4l1.3,0.1l0.5,0.4l0.4,0.5l0.9,0.8l0.9,0.1h0.5l0.5,0.9l1,1.4l0.6,0.6l0.3,0.8l0.1,0.5h0.7l1.2-0.4l0.3,0.3l0.9,1.1  l1.2-0.4h1.4l0.9,0.4l1.2,1l1.4,0.9l1-0.3l2.2-0.5l1.6,0.4l1.3,0.5l0.5,0.5l0.3,0.8l0.1,0.9l0.7,1.1l0.5,1.1l1.6,0.5l1.2,0.4L9,353  h0.4l1.4,0.3l1.2-1l1.2-0.1l1.2,0.1l2.9,2.8l5.8,5.3l14.8,13.3L43.9,379.4z"/>
<path id="Somerset" inkscape:connector-curvature="0" fill="#4582CB" stroke="#FFFFFF" stroke-width="2" stroke-linejoin="round" d="  M116,59.9l22.9-6.3l3.4-1.3l1.1-0.1l1.3-0.4l7.1-2.3l0.4,0.5l0.4,1.3l0.4,1.1l0.6,2.1l-0.3,1.3l0.3,1l1.7,0.5l1.1,0.5l0.8,0.4  l-0.3,0.9l0.1,0.6l-0.3,0.5l0.1,0.4l0.5,0.4l0.8,1l0.3,1.4l1.1,1.4l0.9,1.4l-0.5,2.9l-1.3,0.3l-0.9,0.9v1.8l0.4,1l-0.3,1.1l-1,1  l0.1,0.5l0.5,0.5l0.3,0.6l0.3,1.3l0.3,1.4l1,0.6l1.3,0.1l1-0.4l0.6-0.7l0.4-0.9l0.3-0.6l0.4-0.4l1.1-0.4l0.4-0.3l0.5-0.3l1-0.5  l0.9-0.1l1-0.3l1.3-0.4l2.3-1l0.8,1.3l0.6,2.4l0.5,1.6l5.1-2.4l1.9,0.5l2.8-1.9l0.3,0.6l-0.1,2.5l-0.6,3l-1.4,3.3l-3.4,3.9l-4.1,3.6  l-1.4,0.9l-2.3,1.1l-1.8,0.8l-1.8,1.5l-2.8,1.1l-3.1,1.5l-1.9,1.9l-0.9,2.8l0.4,1.4l0.1,0.6l1.6,3.1l1.1,1.4l2.3,2l1.5,1.8l1.7,3.6  l0.8,0.4l4.1,0.9l0.5,2l0.6,1.9l-0.3,0.9l-1.5,0.8l-2.6,1.1l-0.3,0.1l-0.9,0.6l-0.3,0.4l-0.4,0.5l-0.3,0.4l-0.9,1.4l-0.8,0.9  l-0.5,0.5l-0.5,0.4l-3.5,3.3l-1.5,1.6l-0.4,0.4l-2.1,2.1l-0.5,0.3l-4.9,3.5l-1.3,0.3l-2.2,0.6l-0.3,0.1l-1.4,0.9l-0.3,0.3l-1.1,5.8  l-2.8,4.6l-0.3,0.1l-1.5,0.9l-0.4,0.3l-0.4,0.3l-0.9,0.3v-1l-0.1-0.9l-0.3-0.6l-0.4-1.3l-5.5-1.3l-1.6,0.1l-13.2,4.8l-0.6-0.8  l-1-2.5l-0.8-1.8l-1-2.8l-0.4-0.9l-1.8-4.5l-0.4-0.8l-0.1-0.6l-0.2-0.2l-0.3-0.9l-0.3-0.5l-0.1-0.3l-1.6-3.6l-0.5-1.1l-0.5-1.4  l-0.6-1.5l-0.3-0.8l-0.6-1.4l-0.3-0.6l-0.4-1.1l-0.3-0.5v-0.3l-0.3-0.5l-0.3-0.5l-0.3-0.6l-0.1-0.5l-0.3-0.5l-0.1-0.3l-0.4-0.9  l-0.5-1.5l-0.4-1l-0.1-0.5l-1.7-3.8h0.3l0.1,0.1h0.1l0.3,0.1l0.4,0.3h0.3l0.1,0.1l2.8,2.4l0.5,0.1l1.6-3.6l0.5-1l0.3-0.5l1.6-3.1  l1.3-2.8l0.5-1l0.8-1.5l0.1-0.1l3.1-1.6l1.3-2.4l2.6-4.1l-2.8-1.5l1-2.8l-0.3-0.1l-0.4-0.3l0.1-0.5l1.3-2.3l0.4-0.6l0.4,0.3h0.5  l1.3-2.4l-0.1-0.4l-0.5-0.4l-0.9-1l-0.6-1.6l-1-0.1l-1.6-0.6l-0.3-0.9l1.3-1.3l-0.4-1.1l0.8-1.3l-0.4-1.5l-1-1l-0.4-1v-0.4l1.5-2.1  l0.3-1.8l0.5-1.1l0.1-0.9l-0.8-0.4l-0.5-0.6l0.3-1.1l1.1-1.5l0.1-1.5l-0.5-0.8l-0.6-1.6l-0.5-1.1L116,59.9z"/>
<path id="Sussex" inkscape:connector-curvature="0" fill="#001C65" stroke="#FFFFFF" stroke-width="2" stroke-linejoin="round" d="  M191.7-73.9l-25.3,29l-2.3,2.8l-0.6,0.9l-3.7,3.9l-2.1,2.4l-1.1,1.4l-2.3,2.7l-0.3,0.5l-0.3,0.3l-10.2,11.8l-0.4,0.4l-0.4,0.5  l-0.4,0.4l-0.3,0.4l-1.4,1.4L134.3-7L134-6.7V-6l0.4,0.8l0.4,0.4l0.5,0.6l0.1,0.3l0.1,0.6v0.9l0,0.3L135.2-1l-0.6,1l-0.1,0.1  l-0.1,0.1l-1.8,1.3L132,2.1l-0.1,0.3L131.6,3l0.3,0.6l0.1,0.3l-0.1,0.6l-0.1,0.1l-0.3,0.1L131,4.8h-0.1L130.6,5l-0.6,0.6L129.5,6  l-2.1,1.3l-3.6,1.3l-1.5,0.6l-1.5,1.5l-1.1-0.1l-0.4-0.6L119,9l-0.3-1l-0.9-1l-1.3-0.8l-1,0.1l-0.9-0.5l-0.3-0.5l-0.6-0.3H113L112,6  l-0.8,0.4l-1,0.5h-0.9l-1.8,0.4L95.2-7.2l-3.1-3.9l-5-6.4L85.8-19l-0.4-0.4L84-21.2l-1.3-1.8l-0.6-0.9l-2.6-3l-7.8-9.8l-0.4-0.5  L68.9-40l-2.8-3.5V-44L66-44.3l-0.3-0.1l-0.6,0.2l-0.5,0.3l-0.5,0.4l-0.4,0.4l-0.7,0.4l-0.6,0.5L62-42.2l-0.6,0.1l-0.4-0.1l-0.3-0.4  l-0.1-0.4v-0.3l0.1-0.3l0.4-0.8l0.1-0.2l0.4-0.9l0.6-1.5l0.6-0.8l0.7-0.7l0.1-0.1l0.3-0.2l0.6-0.4h0.2l0.4-0.1l0.6,0l0.3-0.1  l0.6-0.3l0.6-0.6l0.6-0.3l0.2-0.2l0.7-0.5l0.6-0.4l0.2-0.3l0.3-0.4l0.1-0.5l0.5-0.4l0.3-0.3l0.5-0.3L72-54l0.8-0.4l0.9-0.6l1.3-1  l0.9-0.7l1-1.2l0.9-1.2l0.5-0.7L79-61l0.7-1.6l0.4-0.9l0.3-0.5l0.3-0.6l0.3-0.4l0.4-0.5l0.4-0.3l0.7-0.5l0.6-0.9l0.4-0.6l0.1-0.2  l0.3-0.7l0.2-0.5l0.1-0.5l0.3-0.7l0.3-0.8l0.6-1.3l0.6-1.3l0.5-1.1l0.4-0.7l0.9-1.5l0.2-0.3l0.2-0.3l0.3-0.9l0.1-0.6l-0.1-0.5  l-0.1-0.2l-0.1-0.3l-0.5-0.7l-0.4-0.6l-0.1-0.8l0-0.4l0.7-0.9l0.2-0.6l0.1-0.8l0.3-0.6l0.1-0.5l0.5-0.7l0.4-0.6l0.6-0.5l0.5-0.2  l0.8-0.8l0.4-1v-0.3l0.3-1.5l0.3-0.9l0.3-0.6l0.2-0.5l0.1-0.6l0.3-0.8l0.4-0.6l0.4-0.7l0.4-0.8l0.4-0.7l0.4-0.6l0.6-0.6l0.6-0.6  l0.1-0.1l0.5-0.3l0.6-0.5l0.8-0.6l1-0.8l1.3-1l1.2-0.7l0.3-0.4l0.2-0.2l0.1-0.2l0.1-0.3v-0.5l-0.1-0.4l-0.3-0.4l-0.1-0.4l0-0.6  l0.3-0.3l0.3-0.3l0.5-0.3l0.6-0.1l0.5-0.1l0.9,0l0.8-0.2l0.2-0.1l0.5-0.1l0.7-0.3l0.6-0.4l0.4-0.5l0.4-0.8l0.3-0.9l0.4-0.8l0.4-0.6  l0.2-0.3l0.7-0.6l0.6-0.3l0.9-0.2l0.9-0.2l0.5,0l0.7-0.1l0.9,0.2l0.9,0l0.6-0.2l0.8-0.3l1-0.5l1-0.4l1.1-0.4l0.2-0.1l0.7-0.4  l1.4-0.8l9.7,6.1l9.3,5.7l14.4,8.7l26.5,16.4l5.7,3.8L191.7-73.9z"/>
<path id="Union" inkscape:connector-curvature="0" fill="#78B5FE" stroke="#FFFFFF" stroke-width="2" stroke-linejoin="round" d="  M191.1,55.4l2.6,0.9l2.3,1.5l3.5,2.8l0.8,0.4l1.3-0.3l0.9,0.4l1.4,0.5l1.4,0.6l1.8-0.8l1.3-1.3l1.4-0.1l3,1.1l4.4,1.6l4.4,0.9  l2.6,1.3l1.1,1.9l1,2.3l1,0.4l6.6,0.2l2.6-0.5l2.8,2.5l-0.5,1.3l-0.1,1.1l-0.4,1.3l-1.1,1.5l-1,1.5l-0.6,1.1l-1.4,1l-1.3-0.1  l-1.9,0.4l-1.4,1l-1.1,0.9l-0.9,1.1l-0.8,1.8l-0.4,1.6l-0.3,2l-0.3,2l0.1,1.6l0.1,2.3l-0.3-0.1l-0.4-0.8l-0.4-0.6l-0.4-0.1l-0.9,0.3  l-1.1,0.3l-2.5-0.3l-1,0.3l-0.8,0.1l-2.6-0.5l-0.1,0.4l-0.5,1.1l-1.1,0.3l-2.1,0.5l-3.1,0.5l-0.5,0.1l-0.3-0.1l-0.5-0.5l-1.1-1.4  l-0.5-0.9V92l-0.3-0.3l-3.1,0.3l-17.1,1.9L173,95.1l-1.4,0.3l-0.8-1l2.3-1.1l1.4-0.9l4.1-3.6l3.4-3.9l1.4-3.3l0.6-3l0.1-2.5  l-0.3-0.6l-2.8,1.9l-1.9-0.5l-5.1,2.4l-0.5-1.6l-0.6-2.4l-0.8-1.3l0.4-1h0.4l0.6,0.1l0.3-0.1l0.5-1.3v-0.3l-0.3-0.5v-0.4l0.3-0.6  l1.3-0.6l3.1-1.5l0.1-0.4l1.8-2.4h0.1l1.8-1.9h0.1l1.8-1.5l0.1-0.3l2.6-2.5l0.3-0.1L191.1,55.4z"/>
<path id="Warren" inkscape:connector-curvature="0" fill="#001C65" stroke="#FFFFFF" stroke-width="2" stroke-linejoin="round" d="  M66.1-43.6l2.8,3.5l2.4,2.9l0.4,0.5l7.8,9.8l2.6,3l0.6,0.9l1.3,1.8l1.4,1.8l0.4,0.4l1.3,1.5l5,6.4l3.1,3.9l12.3,14.4l-0.8,1.1  L105,9.8l-1.4,1.3l-0.5,1.9l-0.8,0.3l-1.4,0.5l-1.4,1l-0.1,2l0.3,1.3l0.4,1.3V21l-1,0.4l-0.3,0.9l0.1,1.3l-1.7,0.9l-0.6,0.3  l-0.1,0.6l0.4,1l0.1,1.8l-0.8,0.8l-0.9,0.4L94,31.6L93.2,33l-1.1,1.1l-0.4,1.1l-1,1.1l-1.1,1l-2,0.5h-0.1l-0.6,1.5l-1.8,0.9  l-2.1,0.9l-1,0.5l-1.1,0.6l-0.8,0.5l-0.5,0.8L79,45.1l-0.5,1.1L77.3,47l-0.8,1.1l-2.4,2.1l-2.6,2.6l-1.5,2.3l-0.9,1.1l-1.8,2.3  l-1.5,2.9l-0.8,0.9l-1,0.1l-1.3,0.4l-0.1,0.5l-0.5,0.5l-0.8,0.4l-1.8,1.1l-1.8,1.5L57.1,67l-1.6,0.1l-1.2,0.3l-1.3,0.5l-0.4,0.4  l-0.3,0.3L52,68.9l-0.5,0.5l-0.1,0.1l-0.9,0.4l-0.9,0.5l-0.8,0.3L48,71l-0.6,0.5l-1.1,0.4L46,72.4l-1.4,1.8L43,75.1l-3.8,3l-1.9,1.5  l-1.9,1.9l-3.8,1.6l-1.4,1l-0.9,0.4l-1.3,0.6l-0.3,0.1L27,86.5l-0.3,0.1l-1.9,1l-0.8,0.8l-0.8,2.3L23.2,91l-2.6,2.4L18,95.6l0-0.6  l-0.3-1.2l-0.3-1.3l-0.4-1.3l-0.5-0.8l-0.1-0.4l-0.1-0.6l-0.2-0.5v-0.6l0.1-0.5l0.4-0.3l0.6-0.3l0.4-0.1l0.2-0.2l0.3-0.3l0.3-0.8  l0-0.5l-0.1-1.4l-0.1-1l-0.1-0.6l-0.3-0.9l-0.4-0.7l-0.3-0.3l-0.3-0.5l-0.4-0.3l-0.1-0.5l0-0.6l0.1-0.6l0.2-0.5L17,77l0.4-0.5  l0.7-0.8l0.7-0.6l0.7-0.6l0.5-0.5l0.6-0.6l0.3-0.8l0.1-0.8L20.6,71l-0.4-0.4l-0.8-0.1l-1.1-0.1l-1-0.2l-0.9-0.4l-0.6-0.5l-0.3-0.6  l-0.3-1.1l0-0.3l0.2-1.1l0.4-1.6l0.5-1.5l0.8-1.6l0.5-0.9l0.5-0.6l0.4-0.4l0.1-0.1l0.2-0.5l0.1-0.5l0.1-0.4l0.2-0.5l0.4-0.6l0.2-0.6  l-0.2-0.8l-0.4-0.6l-0.3-0.4L18.6,54l-0.3-0.3l-1-1L17,52.2l-0.2-0.8l0.1-0.5l0.3-0.5l0.8-0.7l1.2-0.8l0.8-0.3l0.7-0.4l0.5-0.8  l0.4-0.8l0.3-0.6l0.1-0.8l0.2-0.5l0.3-0.5l0.4-0.5l0.5-0.4l0.7-0.1l0.1,0l0.6,0l0.9,0.1l0.9,0.2l0.9,0.3l0.8,0.3l0.1,0.1l0.9,0.3  l0.6,0.1l0.6-0.1h0.1l0.3-0.1l0.1-0.1l0.3-0.4l0.4-0.5l0.4-0.7l0.3-0.7l0.5-0.5l0.4-0.5l0.6-0.5l0.8-0.2l0.8-0.4l0.4-0.4l0.9-1  l0.6-1l0.4-0.9l0.1-0.5l0.3-0.7l0.3-0.6l0.1-0.1l0.4-0.4l0.3-0.3l0.3-0.3l0.4-0.3l0.6-0.6l0.2-0.5l0.3-0.9l0-0.2v-0.6l0-0.4  l-0.2-1.1l-0.5-0.6L39.7,28l-0.5-0.5l-0.4-0.6l-0.3-0.6l0-0.6l0.3-0.7l0.4-0.5l0.4-0.1l0.8-0.2l0.8-0.1h0.8l0.7,0.3l0.3,0.1l0.2,0.1  l0.7,0.2l0.5,0l0.5-0.1l0.4-0.4l0.2-0.4l0.2-0.6l0.4-0.8l0.4-0.4l0.6-0.6l0.3-0.5l0.3-0.7l0-0.9L47,17.6l-0.6-1.2l-1-1.2l-0.6-1.1  l-0.6-0.9l-0.1-0.1l-0.4-0.6l-0.5-0.9L43,10.8l-0.3-0.8l-0.1-0.8l-0.3-0.9l-0.2-0.9L42,6.7L41.7,6l-0.5-0.7l-0.5-0.5l-0.5-0.2  l-0.6-0.3l-0.5-0.6l-0.4-0.6l-0.8-1.3l-1.2-2.2l-0.9-2l-0.7-0.9l-0.3-0.5l-0.8-1.5l-0.3-0.6l-0.1-0.7V-7l-0.1-0.8l-0.3-0.5L33-8.7  l-0.5-0.1l-0.9-0.3l-0.4-0.3l-0.4-0.2l-0.5-0.4l-0.1-0.1l-0.4-0.9l0.3-0.7l0.4-0.6l0.3-0.6l0.1-0.3v-0.4l0-0.3v-0.3l0.1-0.7l0.4-0.4  l0.7-0.4l0.9-0.7l1.1-0.9l0.3-0.3l0.9-0.8l1.1-0.8l1.6-0.6l1.3-0.5l1.1-0.6l0.9-0.4l0.6-0.3l0.3-0.2l1.3-0.3l1.6-0.7l1.7-0.9  l0.3-0.2l1.3-1l0.3-0.2l0.4-0.3l0.8-0.5l0.5-0.4l0.8-0.6l0.7-0.5l0.5-0.6l0.5-0.4l0.4-0.3l0.3-0.3l0.1-0.6v-0.4l0.2-0.5l0.2-0.6  l0.4-0.4l0.4-0.5l0.4-0.5l0.3-0.7l0.5-1.4l0.2-0.4l0.3-0.6l0.3-0.4l0.4-0.5l0.4-0.1l0.5-0.2l0.3-0.4l0.5-0.4l0.6-0.5l0.8-0.4  l0.8-0.3l0.6-0.3l0.9-0.2l0.8-0.2l0.1-0.1l0.5-0.5l1.1-0.9l0.8-1l0.4-0.6L66.1-43.6z"/>
</svg>